<?xml version="1.0" encoding="UTF-8"?>
<!DOCTYPE svg PUBLIC "-//W3C//DTD SVG 1.1//EN" "http://www.w3.org/Graphics/SVG/1.1/DTD/svg11.dtd">
<!-- Creator: CorelDRAW X8 -->
<svg xmlns="http://www.w3.org/2000/svg" xml:space="preserve" width="100mm" height="100mm" version="1.1" style="shape-rendering:geometricPrecision; text-rendering:geometricPrecision; image-rendering:optimizeQuality; fill-rule:evenodd; clip-rule:evenodd"
viewBox="0 0 10000 10000"
 xmlns:xlink="http://www.w3.org/1999/xlink">
 <defs>
  <style type="text/css">
   <![CDATA[
    .fil0 {fill:#A9ABAE}
   ]]>
  </style>
 </defs>
 <g id="Capa_x0020_1">
  <metadata id="CorelCorpID_0Corel-Layer"/>
  <path class="fil0" d="M6208 8401c-53,0 -103,-27 -132,-74l-1164 -1942 -2175 592c-69,18 -143,-13 -176,-77l-2543 -4783c-24,-45 -24,-98 -1,-143 23,-45 66,-75 116,-82l2161 -291c61,-8 121,21 153,74l2609 4352 3031 -824 -1012 -1427c-29,-42 -36,-95 -18,-144 18,-47 59,-83 108,-95l1419 -335c58,-14 118,8 155,54l1227 1532c32,40 42,94 26,144 -16,49 -56,87 -106,100l-1293 352 1128 1589c28,39 35,89 21,135 -15,46 -50,83 -96,99l-3387 1186c-16,6 -34,8 -51,8zm-987 -2100l1055 1760 3075 -1077 -1074 -1515 -3056 832zm-4828 -4133l2381 4479 1973 -536 -2513 -4191 -1841 248zm7065 1616l946 1332 1175 -319 -1019 -1273 -1102 260z"/>
 </g>
</svg>
