<?xml version="1.0" encoding="UTF-8"?>
<!DOCTYPE svg PUBLIC "-//W3C//DTD SVG 1.1//EN" "http://www.w3.org/Graphics/SVG/1.1/DTD/svg11.dtd">
<!-- Creator: CorelDRAW X8 -->
<svg xmlns="http://www.w3.org/2000/svg" xml:space="preserve" width="100mm" height="71.0272mm" version="1.1" style="shape-rendering:geometricPrecision; text-rendering:geometricPrecision; image-rendering:optimizeQuality; fill-rule:evenodd; clip-rule:evenodd"
viewBox="0 0 10000 7103"
 xmlns:xlink="http://www.w3.org/1999/xlink">
 <defs>
  <style type="text/css">
   <![CDATA[
    .fil0 {fill:#A9ABAE}
   ]]>
  </style>
 </defs>
 <g id="Capa_x0020_1">
  <metadata id="CorelCorpID_0Corel-Layer"/>
  <g id="_2806494338080">
   <g>
    <path class="fil0" d="M7340 12c-546,43 -1004,240 -1345,578 -352,348 -519,773 -519,1313 0,806 331,1370 1069,1817 188,112 444,235 887,426 602,259 826,382 969,535 177,189 226,491 115,723 -22,44 -78,120 -129,170 -171,172 -439,263 -773,263 -564,0 -985,-231 -1323,-731 -46,-67 -88,-122 -94,-122 -13,0 -1113,635 -1136,657 -15,13 -3,43 53,136 440,740 1126,1173 2054,1298 243,33 699,31 931,0 584,-83 1022,-277 1362,-606 361,-348 539,-799 539,-1365 0,-361 -59,-643 -194,-922 -92,-191 -185,-319 -344,-481 -305,-310 -699,-544 -1487,-882 -596,-256 -795,-366 -927,-506 -125,-134 -179,-292 -167,-488 10,-157 53,-262 149,-365 137,-149 296,-211 542,-209 279,0 459,72 643,257 65,64 149,166 188,228 45,71 78,110 90,106 37,-16 1088,-695 1088,-706 0,-5 -53,-89 -119,-187 -138,-209 -388,-469 -560,-583 -318,-211 -658,-319 -1106,-353 -220,-17 -249,-17 -456,-1z"/>
    <path class="fil0" d="M2841 2638l-5 2556 -32 120c-41,158 -91,251 -177,338 -122,122 -278,172 -538,174 -372,1 -594,-156 -853,-599 -42,-69 -79,-126 -84,-124 -6,3 -267,160 -581,350l-571 347 44 86c258,516 706,907 1246,1086 569,189 1301,172 1837,-43 643,-261 1020,-798 1120,-1598 9,-81 15,-984 15,-2684l0 -2563 -709 0 -707 0 -5 2554z"/>
   </g>
  </g>
 </g>
</svg>
