<?xml version="1.0" encoding="UTF-8"?>
<!DOCTYPE svg PUBLIC "-//W3C//DTD SVG 1.1//EN" "http://www.w3.org/Graphics/SVG/1.1/DTD/svg11.dtd">
<!-- Creator: CorelDRAW X8 -->
<svg xmlns="http://www.w3.org/2000/svg" xml:space="preserve" width="100mm" height="100mm" version="1.1" style="shape-rendering:geometricPrecision; text-rendering:geometricPrecision; image-rendering:optimizeQuality; fill-rule:evenodd; clip-rule:evenodd"
viewBox="0 0 10000 10000"
 xmlns:xlink="http://www.w3.org/1999/xlink">
 <defs>
  <style type="text/css">
   <![CDATA[
    .fil0 {fill:#A9ABAE}
   ]]>
  </style>
 </defs>
 <g id="Capa_x0020_1">
  <metadata id="CorelCorpID_0Corel-Layer"/>
  <g id="_2771354618832">
   <g>
    <path class="fil0" d="M10000 5001c0,-662 -829,-1290 -2102,-1679 295,-1297 165,-2328 -410,-2658 -133,-77 -288,-114 -458,-114l0 454c95,0 170,19 232,53 277,159 398,765 304,1543 -23,192 -60,394 -104,599 -398,-98 -836,-174 -1294,-223 -276,-377 -561,-719 -848,-1019 664,-617 1288,-955 1712,-955l0 -455 0 0c-561,0 -1295,399 -2036,1092 -742,-689 -1476,-1084 -2035,-1084l0 455c421,0 1048,336 1712,950 -285,299 -571,640 -842,1016 -461,49 -897,125 -1296,224 -46,-204 -82,-401 -106,-591 -95,-779 23,-1383 298,-1545 61,-37 141,-53 235,-53l0 -453 0 0c-171,0 -326,37 -461,114 -574,330 -702,1359 -407,2652 -1268,390 -2094,1016 -2094,1677 0,663 830,1291 2102,1679 -293,1296 -163,2327 412,2659 133,77 288,114 459,114 560,0 1294,-399 2035,-1092 742,689 1476,1084 2036,1084 171,0 326,-37 461,-114 572,-330 701,-1360 405,-2652 1265,-390 2090,-1018 2090,-1678zm-2653 -1359c-75,262 -169,534 -275,805 -84,-163 -171,-326 -267,-489 -94,-163 -193,-322 -293,-477 289,43 567,96 835,161zm-934 2170c-159,276 -322,536 -492,780 -303,26 -611,41 -921,41 -307,0 -615,-15 -917,-39 -169,-242 -334,-501 -493,-774 -155,-266 -295,-538 -424,-811 126,-273 269,-546 422,-813 159,-276 322,-536 491,-780 304,-26 611,-41 921,-41 308,0 615,15 917,39 170,242 334,501 493,774 155,266 296,538 424,811 -127,273 -267,546 -421,813zm658 -265c110,273 205,546 281,811 -266,65 -548,121 -840,163 100,-156 200,-318 293,-483 96,-162 183,-328 266,-491zm-2065 2175c-190,-196 -380,-414 -568,-652 183,8 371,14 561,14 192,0 382,-3 567,-14 -184,238 -374,456 -560,652zm-1518 -1201c-289,-42 -568,-95 -836,-161 75,-263 170,-534 276,-806 83,163 171,326 266,489 97,164 195,323 294,478zm1507 -4240c189,196 379,413 567,652 -183,-8 -371,-15 -560,-15 -193,0 -382,4 -568,15 183,-239 373,-458 561,-652zm-1508 1199c-100,156 -200,318 -293,484 -94,163 -182,326 -265,489 -110,-273 -204,-546 -281,-811 266,-64 547,-118 839,-162zm-1845 2552c-721,-307 -1189,-711 -1189,-1031 0,-319 467,-726 1189,-1031 175,-75 367,-143 565,-205 116,399 269,815 458,1242 -187,424 -338,837 -452,1235 -202,-65 -393,-134 -571,-210zm1096 2913c-277,-159 -397,-765 -303,-1542 22,-193 59,-394 103,-599 399,98 836,173 1295,222 275,378 560,720 848,1019 -664,618 -1288,956 -1712,956 -92,-3 -170,-21 -231,-56zm4834 -1553c96,779 -22,1383 -298,1545 -61,37 -140,53 -234,53 -422,0 -1049,-336 -1712,-950 284,-300 571,-640 841,-1016 461,-49 897,-125 1296,-224 49,205 86,402 107,592zm786 -1360c-175,76 -367,143 -564,206 -117,-399 -269,-815 -459,-1242 187,-424 338,-838 452,-1235 202,63 394,132 573,208 721,307 1188,712 1188,1031 -2,321 -469,726 -1190,1032z"/>
    <line class="fil0" x1="2958" y1="555" x2="2958" y2= "555" />
    <circle class="fil0" cx="4999" cy="5001" r="932"/>
    <line class="fil0" x1="7029" y1="550" x2="7029" y2= "550" />
   </g>
  </g>
 </g>
</svg>
