<?xml version="1.0" encoding="UTF-8"?>
<!DOCTYPE svg PUBLIC "-//W3C//DTD SVG 1.1//EN" "http://www.w3.org/Graphics/SVG/1.1/DTD/svg11.dtd">
<!-- Creator: CorelDRAW X8 -->
<svg xmlns="http://www.w3.org/2000/svg" xml:space="preserve" width="100mm" height="100mm" version="1.1" style="shape-rendering:geometricPrecision; text-rendering:geometricPrecision; image-rendering:optimizeQuality; fill-rule:evenodd; clip-rule:evenodd"
viewBox="0 0 10000 10000"
 xmlns:xlink="http://www.w3.org/1999/xlink">
 <defs>
  <style type="text/css">
   <![CDATA[
    .fil0 {fill:#A9ABAE}
   ]]>
  </style>
 </defs>
 <g id="Capa_x0020_1">
  <metadata id="CorelCorpID_0Corel-Layer"/>
  <path class="fil0" d="M10000 4535c0,25 0,59 -9,85 -8,60 -25,85 -42,85l-214 0 0 923c0,25 -60,34 -179,34 -120,0 -188,-9 -188,-34l0 -931 -222 0c-17,0 -34,-26 -43,-86 0,-25 -8,-51 -8,-85 0,-26 0,-60 8,-85 9,-60 26,-86 43,-86l803 0c17,0 34,26 42,86 0,34 9,59 9,94zm-8762 538c0,128 -102,230 -230,230 -128,0 -239,-102 -239,-230 0,-129 102,-231 230,-231 128,0 239,102 239,231zm1606 0c0,128 -103,230 -231,230 -128,0 -230,-102 -230,-230 0,-129 102,-231 230,-231 128,0 231,102 231,231zm452 -1153c-111,60 -222,119 -324,188 -51,-52 -111,-94 -162,-137 -60,-43 -120,-77 -180,-120 17,-128 26,-264 34,-401 -153,-77 -316,-128 -486,-162 -69,111 -128,230 -180,350 -59,-9 -128,-17 -188,-17l0 0 0 0 0 0 0 0c-59,0 -128,8 -187,17 -52,-120 -111,-239 -180,-350 -162,34 -333,85 -487,162 0,137 9,265 35,401 -60,35 -120,69 -180,120 -60,43 -111,85 -162,137 -102,-69 -213,-128 -324,-188 -120,128 -231,273 -325,427 68,111 145,213 222,316l9 0 0 956 0 0c0,0 8,-34 8,-34l589 60c43,8 86,42 86,85l17 231 452 34 35 -214c8,-42 51,-85 94,-85l623 0c51,0 85,34 94,85l34 214 453 -34 17 -231c0,-43 42,-85 85,-85l589 -60c0,0 9,34 9,34l0 -77 0 0 0 -879 0 0c77,-103 154,-205 222,-316 -111,-154 -222,-291 -342,-427zm-2322 1486c-197,0 -351,-163 -351,-350 0,-188 163,-351 351,-351 187,0 350,163 350,351 0,187 -154,350 -350,350zm947 -69c0,60 -51,103 -111,103 -59,0 -111,-43 -111,-103l0 -324c0,-60 52,-103 111,-103 60,0 111,43 111,103l0 324zm718 69c-197,0 -350,-163 -350,-350 0,-188 162,-351 350,-351 196,0 350,163 350,351 0,187 -154,350 -350,350zm760 358c0,60 0,120 0,128 0,555 -709,820 -1589,820l0 0c-879,0 -1596,-265 -1596,-820 0,-8 0,-145 0,-145l0 0 0 0 503 77 17 231c0,51 43,85 86,85l623 51 9 0c51,-8 85,-42 94,-85l34 -205 452 0 35 213c8,43 94,86 94,86 0,0 0,0 8,0l632 -43c51,0 85,-43 85,-85l18 -231 495 -77 0 0zm1904 -743l-8 573c-26,17 -77,34 -154,51 -77,17 -162,25 -256,25 -180,0 -325,-59 -436,-170 -111,-111 -162,-282 -162,-504 0,-188 51,-342 162,-461 111,-120 256,-180 444,-180 86,0 163,9 239,26 69,17 120,43 146,68 0,9 0,26 0,51 0,26 -9,69 -26,111 -17,52 -43,86 -60,111 -25,26 -43,35 -51,35 -9,0 -26,-9 -34,-17 -9,-9 -34,-18 -69,-26 -42,-9 -68,-9 -102,-9 -77,0 -137,26 -188,77 -51,51 -68,128 -68,231 0,102 25,179 77,230 51,52 102,77 170,77 60,0 94,-17 94,-51l0 -85 -111 0 0 -197c0,0 111,-17 214,-17 94,0 179,17 179,51zm1144 -512c-102,-111 -247,-162 -418,-162 -171,0 -316,59 -427,171 -111,111 -162,273 -162,495 0,213 51,384 162,495 111,111 248,171 419,171 170,0 315,-51 418,-162 111,-111 162,-274 162,-496 9,-239 -42,-401 -154,-512zm-273 717c-42,52 -85,77 -154,77 -59,0 -111,-25 -153,-77 -34,-51 -60,-128 -60,-222 0,-94 17,-171 60,-222 42,-51 85,-77 145,-77 60,0 111,26 145,77 43,51 60,128 60,222 17,94 0,171 -43,222zm1426 -717c-102,-94 -247,-145 -444,-145l-307 0c-26,0 -43,8 -60,25 -17,18 -26,43 -26,69l0 1101c0,60 35,86 94,86l308 0c384,0 572,-222 572,-675 9,-213 -43,-367 -137,-461zm-281 734c-35,52 -86,77 -154,77 -17,0 -26,0 -34,-8 0,-9 -9,-26 -9,-52l0 -555 17 0c77,0 137,17 171,52 34,34 51,111 51,230 9,120 -8,205 -42,256zm1562 -734c-102,-111 -247,-162 -418,-162 -171,0 -316,59 -427,171 -111,111 -162,273 -162,495 0,213 51,384 162,495 111,111 248,171 418,171 171,0 316,-51 419,-162 111,-111 162,-274 162,-496 9,-239 -43,-401 -154,-512zm-273 717c-43,52 -85,77 -154,77 -59,0 -111,-25 -153,-77 -35,-51 -60,-128 -60,-222 0,-94 17,-171 60,-222 42,-51 85,-77 145,-77 60,0 111,26 145,77 43,51 60,128 60,222 17,94 0,171 -43,222z"/>
 </g>
</svg>
