<?xml version="1.0" encoding="utf-8"?>
<!-- Generator: Adobe Illustrator 21.0.0, SVG Export Plug-In . SVG Version: 6.00 Build 0)  -->
<svg version="1.1" id="Capa_1" xmlns="http://www.w3.org/2000/svg" xmlns:xlink="http://www.w3.org/1999/xlink" x="0px" y="0px"
	 viewBox="0 0 400 400" style="enable-background:new 0 0 400 400;" xml:space="preserve">
<style type="text/css">
	.st0{fill:#03AFF5;}
	.st1{fill:#FFFFFF;}
	.st2{fill:none;stroke:#FFFFFF;stroke-width:16;stroke-linejoin:round;stroke-miterlimit:10;}
</style>
<g>
	<polygon class="st0" points="370.7,350.5 271.7,329.3 293.5,227.8 	"/>
	<circle class="st0" cx="193.6" cy="197.3" r="163.3"/>
</g>
<g>
	<g>
		<path class="st1" d="M253.9,130.5c6.9,0,12.9,5.2,13.9,12l12.5,88.7c0.5,3.7-0.4,7.3-2.7,10.4c-2.3,3-5.5,4.9-9.2,5.5l-133.2,18.7
			c-0.6,0.1-1.3,0.1-1.9,0.1c-6.9,0-12.9-5.2-13.9-12l-12.5-88.7c-1.1-7.6,4.3-14.7,11.9-15.8l133.2-18.7
			C252.6,130.6,253.2,130.5,253.9,130.5 M253.9,114.5c-1.4,0-2.8,0.1-4.2,0.3l-133.2,18.7c-16.3,2.3-27.8,17.5-25.5,33.9l12.5,88.7
			c2.1,14.9,15,25.8,29.7,25.8c1.4,0,2.8-0.1,4.2-0.3L270.5,263c16.3-2.3,27.8-17.5,25.5-33.9l-12.5-88.7
			C281.5,125.4,268.5,114.5,253.9,114.5L253.9,114.5z"/>
	</g>
	<polyline class="st2" points="99.6,152.8 197.1,214.1 275,126.9 	"/>
</g>
<g>
</g>
<g>
</g>
<g>
</g>
<g>
</g>
<g>
</g>
<g>
</g>
<g>
</g>
<g>
</g>
<g>
</g>
<g>
</g>
<g>
</g>
<g>
</g>
<g>
</g>
<g>
</g>
<g>
</g>
</svg>
