<?xml version="1.0" encoding="UTF-8"?>
<!DOCTYPE svg PUBLIC "-//W3C//DTD SVG 1.1//EN" "http://www.w3.org/Graphics/SVG/1.1/DTD/svg11.dtd">
<!-- Creator: CorelDRAW X8 -->
<svg xmlns="http://www.w3.org/2000/svg" xml:space="preserve" width="25.3998mm" height="15.0706mm" version="1.1" style="shape-rendering:geometricPrecision; text-rendering:geometricPrecision; image-rendering:optimizeQuality; fill-rule:evenodd; clip-rule:evenodd"
viewBox="0 0 2540 1507"
 xmlns:xlink="http://www.w3.org/1999/xlink">
 <defs>
  <style type="text/css">
   <![CDATA[
    .fil0 {fill:#62ACED}
    .fil2 {fill:#69B9E8}
    .fil1 {fill:#EAAD5D}
   ]]>
  </style>
 </defs>
 <g id="Capa_x0020_1">
  <metadata id="CorelCorpID_0Corel-Layer"/>
  <g id="_2190380814752">
   <g id="Main_screen">
    <g id="Capa_15">
     <g id="Rectángulo_1_2_">
      <g>
       <g>
        <path class="fil0" d="M2518 21l0 1466 -2496 0 0 -1466 2496 0 0 0zm22 -22l-2540 0 0 1510 2540 0 0 -1510 0 0z"/>
       </g>
      </g>
     </g>
    </g>
   </g>
   <g id="img-box">
    <g id="Rectángulo_1_copia_5_1_">
     <g>
      <g>
       <path class="fil0" d="M2244 390l0 774 -823 0 0 -774 823 0 0 0zm21 -22l-865 0 0 818 866 0 0 -818 -1 0z"/>
      </g>
     </g>
    </g>
   </g>
   <g id="logo_box">
    <g id="Rectángulo_1_copia_2_1_">
     <g>
      <rect class="fil1" x="222" y="98" width="223.124" height="70.7083"/>
     </g>
    </g>
   </g>
   <g id="Line_1">
    <g id="Rectángulo_1_copia_6_1_">
     <g>
      <g>
       <path class="fil0" d="M807 354l0 28 -563 0 0 -28 563 0 0 0zm22 -21l-607 0 0 71 607 0 0 -71 0 0z"/>
      </g>
     </g>
    </g>
   </g>
   <g id="Line_2">
    <g id="Rectángulo_1_copia_7_1_">
     <g id="_2190380823776">
      <g>
       <path class="fil0" d="M807 488l0 27 -563 0 0 -27 563 0 0 0zm22 -22l-607 0 0 71 607 0 0 -71 0 0z"/>
      </g>
     </g>
    </g>
   </g>
   <g id="Line_3">
    <g id="Rectángulo_1_copia_8_1_">
     <g>
      <g>
       <path class="fil0" d="M1307 728l0 28 -1063 0 0 -28 1063 0 0 0zm22 -22l-1107 0 0 71 1107 0 0 -71 0 0z"/>
      </g>
     </g>
    </g>
   </g>
   <g id="Line_4">
    <g id="Rectángulo_1_copia_9_1_">
     <g>
      <g>
       <path class="fil0" d="M1307 861l0 28 -1063 0 0 -28 1063 0 0 0zm22 -21l-1107 0 0 71 1107 0 0 -71 0 0z"/>
      </g>
     </g>
    </g>
   </g>
   <g id="Line_5">
    <g id="Rectángulo_1_copia_10_1_">
     <g>
      <g>
       <path class="fil0" d="M1307 993l0 28 -1063 0 0 -28 1063 0 0 0zm22 -22l-1107 0 0 71 1107 0 0 -71 0 0z"/>
      </g>
     </g>
    </g>
   </g>
   <g id="Line_6">
    <g id="Rectángulo_1_copia_11_1_">
     <g>
      <g>
       <path class="fil0" d="M1307 1138l0 27 -1063 0 0 -27 1063 0 0 0zm22 -22l-1107 0 0 70 1107 0 0 -70 0 0z"/>
      </g>
     </g>
    </g>
   </g>
   <g id="link1">
    <g id="Rectángulo_1_copia_3_1_">
     <g>
      <g>
       <path class="fil0" d="M1600 120l0 27 -180 0 0 -27 180 0 0 0zm22 -22l-224 0 0 70 224 0 0 -70 0 0z"/>
      </g>
     </g>
    </g>
   </g>
   <g id="link2">
    <g id="Rectángulo_1_copia_4_3_">
     <g>
      <g>
       <path class="fil0" d="M1935 120l0 27 -179 0 0 -27 179 0 0 0zm22 -22l-223 0 0 70 223 0 0 -70 0 0z"/>
      </g>
     </g>
    </g>
   </g>
   <g id="link3">
    <g id="Rectángulo_1_copia_4_2_">
     <g>
      <g>
       <path class="fil0" d="M2268 120l0 27 -179 0 0 -27 179 0 0 0zm22 -22l-223 0 0 70 223 0 0 -70 0 0z"/>
      </g>
     </g>
    </g>
   </g>
   <g id="scroll_bar">
    <g id="Rectángulo_1_copia_12_1_">
     <g>
      <g>
       <path class="fil0" d="M2518 21l0 1466 -28 0 0 -1466 28 0 0 0zm22 -22l-71 0 0 1510 71 0 0 -1510 0 0z"/>
      </g>
     </g>
    </g>
   </g>
   <g id="scroll_level">
    <g id="Rectángulo_1_copia_13_1_">
     <g>
      <g>
       <path class="fil2" d="M2518 120l0 119 -28 0 0 -119 28 0 0 0zm22 -22l-71 0 0 163 71 0 0 -163 0 0z"/>
      </g>
     </g>
    </g>
   </g>
  </g>
 </g>
</svg>
