<?xml version="1.0" encoding="UTF-8"?>
<!DOCTYPE svg PUBLIC "-//W3C//DTD SVG 1.1//EN" "http://www.w3.org/Graphics/SVG/1.1/DTD/svg11.dtd">
<!-- Creator: CorelDRAW X8 -->
<svg xmlns="http://www.w3.org/2000/svg" xml:space="preserve" width="100mm" height="100mm" version="1.1" style="shape-rendering:geometricPrecision; text-rendering:geometricPrecision; image-rendering:optimizeQuality; fill-rule:evenodd; clip-rule:evenodd"
viewBox="0 0 10000 10000"
 xmlns:xlink="http://www.w3.org/1999/xlink">
 <defs>
  <style type="text/css">
   <![CDATA[
    .fil0 {fill:#FEFEFE}
   ]]>
  </style>
 </defs>
 <g id="Capa_x0020_1">
  <metadata id="CorelCorpID_0Corel-Layer"/>
  <path class="fil0" d="M125 9773l2142 0 0 -6445 -2142 0 0 6445zm9875 -3693l0 3699 -2142 0 0 -3450c0,-865 -311,-1457 -1083,-1457 -592,0 -947,399 -1103,785 -56,137 -68,330 -68,523l0 3599 -2148 0c0,0 31,-5847 0,-6451l2142 0 0 915c-6,7 -13,13 -13,19l13 0 0 -19c286,-435 791,-1064 1930,-1064 1413,-7 2472,915 2472,2901l0 0zm-8786 -5859c-735,0 -1214,480 -1214,1115 0,616 467,1114 1183,1114l13 0c747,0 1214,-498 1214,-1114 -13,-635 -461,-1115 -1196,-1115l0 0z"/>
 </g>
</svg>
