<?xml version="1.0" encoding="UTF-8"?>
<!DOCTYPE svg PUBLIC "-//W3C//DTD SVG 1.1//EN" "http://www.w3.org/Graphics/SVG/1.1/DTD/svg11.dtd">
<!-- Creator: CorelDRAW X8 -->
<svg xmlns="http://www.w3.org/2000/svg" xml:space="preserve" width="100mm" height="100mm" version="1.1" style="shape-rendering:geometricPrecision; text-rendering:geometricPrecision; image-rendering:optimizeQuality; fill-rule:evenodd; clip-rule:evenodd"
viewBox="0 0 10000 10000"
 xmlns:xlink="http://www.w3.org/1999/xlink">
 <defs>
  <style type="text/css">
   <![CDATA[
    .fil0 {fill:#FEFEFE}
   ]]>
  </style>
 </defs>
 <g id="Capa_x0020_1">
  <metadata id="CorelCorpID_0Corel-Layer"/>
  <path class="fil0" d="M7265 5455l0 4c302,0 603,4 904,8 4,301 4,602 8,904l3 0 1 4c298,0 601,0 904,0 0,-303 3,-606 7,-908 303,0 605,-4 908,-4 0,-303 0,-602 0,-904l-4 0 0 -4c-301,-4 -602,-4 -904,-7 0,-302 -4,-603 -7,-905l-4 0 0 -3 -802 0 0 0 -14 0 0 0 -14 0 0 0 -14 0 0 0 -14 0 0 0 -14 0 0 0 -14 0 -14 0 -1 14 0 14 0 14 0 14 0 15 0 0 -1 14 0 0 0 14 0 0 0 14 0 0 -10 791c-302,4 -605,7 -908,7 0,303 0,602 0,904l4 0zm-7263 -452c-63,-1636 1371,-3149 3011,-3168 13,-1 27,-2 40,-3 13,-1 26,-2 39,-2l0 0c661,-37 1303,168 1847,525 123,80 241,167 353,261 -257,284 -523,568 -803,829l-2 -1 -2 1c-408,-246 -877,-451 -1354,-452 -172,0 -345,26 -517,86 -1050,299 -1685,1536 -1297,2563 291,970 1386,1543 2347,1311 100,-24 199,-58 295,-100 530,-191 878,-680 1031,-1203l-10 -1c-596,-10 -1197,-3 -1793,-21l-17 -1c0,-358 0,-717 0,-1079 965,-4 1930,-4 2895,2l4 0 44 1 4 0 43 0 4 0 48 0c63,886 -68,1831 -643,2541 -719,924 -1992,1253 -3106,1000 -108,-24 -215,-53 -320,-89 -1059,-346 -1874,-1299 -2087,-2386l0 0c-4,-20 -7,-40 -11,-60l0 0c-4,-20 -7,-41 -10,-61l0 0c-3,-20 -6,-40 -9,-61 -2,-20 -5,-41 -7,-61l0 0c-2,-20 -4,-41 -6,-61 -2,-21 -4,-41 -5,-62 -1,-20 -3,-41 -4,-62 0,-20 -1,-41 -2,-62 0,-20 0,-41 0,-62 -1,-20 0,-41 0,-62z"/>
 </g>
</svg>
