<?xml version="1.0" encoding="UTF-8"?>
<!DOCTYPE svg PUBLIC "-//W3C//DTD SVG 1.1//EN" "http://www.w3.org/Graphics/SVG/1.1/DTD/svg11.dtd">
<!-- Creator: CorelDRAW X8 -->
<svg xmlns="http://www.w3.org/2000/svg" xml:space="preserve" width="42.3332mm" height="42.3332mm" version="1.1" style="shape-rendering:geometricPrecision; text-rendering:geometricPrecision; image-rendering:optimizeQuality; fill-rule:evenodd; clip-rule:evenodd"
viewBox="0 0 4233 4233"
 xmlns:xlink="http://www.w3.org/1999/xlink">
 <defs>
  <style type="text/css">
   <![CDATA[
    .fil1 {fill:#03AFF5}
    .fil0 {fill:#999999}
   ]]>
  </style>
 </defs>
 <g id="Capa_x0020_1">
  <metadata id="CorelCorpID_0Corel-Layer"/>
  <g id="_1830778211024">
   <g id="_1830778192496">
    <path class="fil0" d="M2989 3299c-13,30 -47,43 -76,31l-195 -84c-35,-15 -74,-3 -95,27 -90,130 -204,241 -338,327 -31,20 -44,60 -30,95l77 196c12,29 -2,64 -32,75l-215 86c-29,11 -64,-3 -75,-33l-79 -196c-14,-35 -50,-56 -86,-49 -157,29 -314,27 -470,-7 -37,-8 -74,12 -88,45l-84 195c-13,29 -48,43 -77,31l-211 -92c-15,-6 -26,-17 -31,-33 -6,-14 -6,-30 1,-45l83 -194c16,-35 4,-75 -26,-95 -131,-90 -242,-204 -328,-338 -20,-31 -60,-44 -94,-31l-196 79c-31,11 -64,-2 -76,-33l-86 -212c-11,-30 2,-64 33,-75l196 -79c35,-14 55,-50 48,-87 -28,-156 -26,-313 7,-470 8,-36 -11,-73 -45,-88l-194 -84c-15,-6 -26,-17 -31,-33 -6,-15 -6,-30 1,-45l91 -211c6,-14 17,-26 33,-31 16,-5 30,-5 45,1l194 84c35,16 75,3 96,-27 90,-130 204,-241 338,-327 31,-20 44,-60 30,-95l-79 -196c-6,-15 -5,-30 1,-45 6,-14 17,-26 33,-31l213 -85c30,-11 64,3 76,33l78 196c16,40 62,60 101,45 40,-16 60,-62 45,-102l-79 -196c-44,-111 -169,-164 -279,-121l-214 85c-53,21 -95,61 -118,115 -23,52 -24,111 -3,165l55 138c-109,79 -207,173 -290,282l-137 -59c-52,-22 -111,-23 -165,-2 -52,20 -95,61 -118,115l-92 210c-22,53 -23,112 -2,166 20,52 61,95 114,118l137 59c-24,132 -26,267 -7,403l-138 54c-111,44 -164,169 -121,279l85 211c43,111 168,165 279,121l138 -55c79,110 173,207 282,290l-59 137c-22,53 -23,112 -2,165 20,53 61,95 115,119l211 91c108,47 236,-3 282,-112l59 -137c135,23 270,25 405,6l55 139c34,83 113,134 197,135 28,0 55,-4 82,-15l214 -85c110,-44 164,-168 120,-279l-55 -138c110,-79 208,-173 291,-282l136 58c109,48 236,-3 283,-112l92 -211c22,-53 23,-111 2,-165 -21,-53 -61,-95 -115,-118l-194 -84c-40,-18 -86,2 -103,40 -17,40 1,86 40,103l195 84c15,6 26,17 31,33 6,15 5,30 -1,45l-91 212 0 0z"/>
    <path class="fil0" d="M1631 2050c44,1 79,-34 79,-77 1,-44 -34,-79 -78,-79 0,0 0,0 -1,0 -185,-1 -358,69 -490,199 -131,129 -205,302 -205,487 -1,184 69,358 198,490 129,130 300,203 482,205 1,0 3,0 5,0 185,1 359,-69 490,-198 131,-130 205,-303 206,-487 1,-43 -35,-79 -78,-79 0,0 0,0 -1,0 -43,-1 -78,35 -78,78 -1,143 -58,277 -160,377 -102,100 -237,155 -380,153 -2,0 -3,0 -4,0 -141,-2 -274,-59 -373,-159 -100,-102 -154,-237 -153,-380 1,-142 58,-276 160,-377 104,-99 239,-153 381,-153l0 0z"/>
   </g>
   <g id="_1830778191856">
    <path class="fil1" d="M3776 2034c84,50 194,24 245,-61l86 -142c50,-84 24,-194 -60,-245l-78 -47c25,-86 39,-174 40,-263l89 -22c95,-23 153,-120 130,-215l-40 -163c-11,-46 -40,-84 -80,-108 -41,-25 -88,-32 -134,-21l-89 22c-43,-79 -96,-151 -158,-215l47 -79c51,-83 25,-193 -60,-244l-144 -87c-83,-50 -193,-24 -244,61l-48 79c-86,-25 -175,-39 -264,-40l-21 -89c-11,-47 -41,-85 -80,-109 -41,-24 -89,-32 -135,-21l-162 40c-95,23 -154,120 -130,215l21 89c-79,43 -150,96 -214,158l-79 -47c-84,-50 -194,-24 -245,60l-86 144c-50,84 -24,193 60,244l79 48c-25,86 -39,175 -40,264l-89 21c-95,24 -154,120 -130,215l40 163c11,47 40,85 80,109 41,24 88,32 134,21l89 -22c43,79 96,150 158,214l-47 79c-51,84 -25,194 60,245l144 86c83,50 193,24 244,-60l48 -80c86,25 174,39 263,40l22 89c11,47 41,85 80,109 41,24 89,32 134,21l163 -40c95,-24 154,-120 130,-215l-21 -89c79,-44 150,-96 214,-159l78 47 0 0 0 0zm-149 -199c-76,84 -166,150 -268,198 -34,16 -52,54 -44,89l37 150c3,12 -3,23 -15,26l-163 39c-7,2 -12,0 -15,-2 -4,-3 -8,-6 -10,-13l-37 -150c-9,-37 -42,-61 -79,-59 -114,6 -224,-12 -331,-50 -34,-13 -74,2 -94,33l-79 132c-6,9 -19,13 -29,7l-143 -87c-10,-6 -13,-19 -7,-28l79 -132c19,-32 13,-72 -14,-98 -83,-77 -149,-166 -198,-269 -6,-14 -17,-26 -30,-34 -17,-10 -39,-15 -59,-9l-150 38c-7,1 -13,-1 -15,-3 -4,-3 -8,-6 -10,-13l-40 -162c-2,-13 4,-24 16,-26l149 -38c37,-8 62,-42 59,-79 -5,-113 12,-224 50,-330 13,-35 -1,-75 -33,-94l-131 -80c-10,-6 -13,-19 -7,-29l87 -144c6,-9 19,-13 29,-7l131 80c32,19 73,13 99,-14 76,-84 166,-150 269,-198 33,-16 52,-54 43,-89l-37 -150c-2,-6 1,-13 2,-15 3,-4 6,-8 13,-10l163 -41c7,-2 13,1 15,2 4,3 8,6 10,13l37 150c9,37 42,61 80,59 113,-6 223,12 330,50 34,13 74,-2 94,-33l80 -131c6,-9 19,-12 28,-7l144 87c9,6 13,19 6,28l-79 132c-19,32 -13,73 14,98 84,76 149,166 198,269 15,34 53,52 89,44l149 -38c7,-1 13,1 16,3 3,2 8,6 9,13l40 162c3,12 -3,24 -15,26l-150 37c-37,9 -61,43 -59,80 5,113 -12,224 -50,330 -13,35 2,75 33,94l131 80c10,6 13,19 7,28l-86 144c-6,10 -19,13 -29,7l-131 -80c-32,-20 -74,-14 -99,14l0 0z"/>
    <path class="fil1" d="M3255 826c-238,-143 -546,-66 -690,171 -143,237 -66,546 170,689 238,144 547,67 690,-170 144,-237 67,-547 -170,-690zm-439 726c-163,-99 -216,-312 -116,-475 98,-163 311,-216 474,-117 164,99 216,312 117,475 -99,163 -312,215 -475,117l0 0z"/>
   </g>
  </g>
 </g>
</svg>
