<?xml version="1.0" encoding="UTF-8"?>
<!DOCTYPE svg PUBLIC "-//W3C//DTD SVG 1.1//EN" "http://www.w3.org/Graphics/SVG/1.1/DTD/svg11.dtd">
<!-- Creator: CorelDRAW X8 -->
<svg xmlns="http://www.w3.org/2000/svg" xml:space="preserve" width="42.3332mm" height="42.3332mm" version="1.1" style="shape-rendering:geometricPrecision; text-rendering:geometricPrecision; image-rendering:optimizeQuality; fill-rule:evenodd; clip-rule:evenodd"
viewBox="0 0 4233 4233"
 xmlns:xlink="http://www.w3.org/1999/xlink">
 <defs>
  <style type="text/css">
   <![CDATA[
    .str0 {stroke:#999999;stroke-width:7.62}
    .fil1 {fill:#03AFF5}
    .fil0 {fill:#979797;fill-rule:nonzero}
   ]]>
  </style>
 </defs>
 <g id="Capa_x0020_1">
  <metadata id="CorelCorpID_0Corel-Layer"/>
  <g id="_1830786864912">
   <path class="fil0 str0" d="M4224 2266c12,122 12,245 0,367l-1 6 0 2c-15,77 -41,153 -76,226 -34,72 -78,142 -130,208l-1 2c-156,181 -365,292 -585,327 -222,36 -455,-6 -656,-129l-8 -5 -16 -16 -16 -12c-26,-21 -50,-41 -75,-53l-4 -2 -2 -2c-149,-91 -321,-129 -489,-115 -167,15 -330,81 -460,196l0 0c-15,13 -29,27 -43,42 -13,13 -27,28 -40,44l-3 5 -3 3 -5 10 -11 10c-178,155 -401,235 -626,237 -222,1 -445,-73 -629,-228l0 -1c-64,-55 -120,-117 -167,-184 -47,-67 -84,-138 -111,-213l-1 -4 -1 -3c-15,-59 -27,-120 -38,-182 -9,-59 -16,-118 -20,-175l0 0c-22,-273 9,-551 94,-817 82,-255 214,-499 397,-714l0 0c18,-23 36,-46 57,-66l0 0c21,-23 41,-45 61,-64 20,-20 42,-41 67,-64l4 -4 5 -3c87,-59 187,-91 289,-96 101,-5 203,17 294,69l5 3 4 3c11,8 21,15 30,23 19,14 37,29 57,41l1 1c199,127 430,178 653,155 223,-22 439,-118 610,-282l0 0c15,-15 30,-30 37,-40l7 -9 9 -7c5,-4 12,-10 20,-16 9,-8 18,-16 29,-24l2 -2c60,-42 129,-70 199,-85 73,-15 148,-16 222,-5l15 3 12 7c51,30 102,63 152,99 49,34 96,71 142,111 9,7 17,14 26,21 7,6 14,13 19,17l5 4c202,179 362,391 477,622 120,238 192,495 216,758l0 0zm-157 346c11,-110 11,-220 0,-330l0 -1c-22,-243 -89,-482 -200,-703 -106,-212 -253,-407 -439,-572 -9,-8 -17,-15 -25,-22 -8,-6 -15,-12 -20,-17l-4 -3c-42,-36 -86,-71 -131,-103 -42,-30 -85,-57 -127,-83 -50,-6 -101,-4 -150,6 -51,11 -99,31 -142,60 -5,4 -11,9 -17,15 -7,5 -13,11 -20,17 -15,18 -30,33 -45,48l-1 1c-197,190 -447,300 -705,327 -258,26 -524,-33 -753,-179l0 0c-25,-16 -48,-34 -71,-52 -8,-6 -16,-13 -24,-18 -63,-35 -134,-50 -204,-47 -72,4 -142,27 -205,68 -18,16 -37,35 -56,54 -21,21 -41,42 -59,61l-2 3c-20,20 -34,37 -47,54l-2 2c-169,200 -291,424 -366,660 -79,245 -108,503 -88,757l0 1c4,53 11,107 19,160 9,55 21,111 35,166 22,60 52,118 89,172 39,55 86,107 140,154l0 0c154,130 341,192 526,191 184,-1 367,-66 513,-190 5,-8 10,-13 15,-18 14,-18 30,-36 47,-54 17,-17 35,-34 53,-49l0 0c156,-139 351,-219 551,-236 199,-16 404,28 582,137 39,21 69,44 100,69 2,1 4,3 19,14l4 4 8 8c167,100 359,133 541,104 184,-29 359,-122 489,-274l0 0c44,-55 80,-113 109,-174 29,-61 50,-124 63,-188z"/>
   <path class="fil1" d="M814 1755c67,-31 139,-46 213,-46 59,0 119,10 177,32 53,20 104,50 149,91 106,89 165,212 176,340 11,129 -28,261 -117,367l0 1c-50,58 -109,102 -173,131 -67,31 -139,47 -212,47 -59,0 -117,-10 -173,-31 -54,-19 -104,-49 -150,-88 -106,-91 -166,-216 -178,-344 -11,-128 26,-260 115,-368l0 0c50,-58 109,-102 173,-132zm213 101c198,0 357,160 357,357 0,197 -159,357 -357,357 -197,0 -357,-160 -357,-357 0,-197 160,-357 357,-357z"/>
   <circle class="fil1" transform="matrix(0.144756 -0.171632 0.171632 0.144756 2876.23 2337.07)" r="1062"/>
   <circle class="fil1" transform="matrix(0.144756 -0.171632 0.171632 0.144756 3303.92 1798.94)" r="1062"/>
  </g>
 </g>
</svg>
