<?xml version="1.0" encoding="utf-8"?>
<!-- Generator: Adobe Illustrator 21.0.0, SVG Export Plug-In . SVG Version: 6.00 Build 0)  -->
<svg version="1.1" id="Capa_1" xmlns="http://www.w3.org/2000/svg" xmlns:xlink="http://www.w3.org/1999/xlink" x="0px" y="0px"
	 viewBox="0 0 81 70" style="enable-background:new 0 0 81 70;" xml:space="preserve">
<style type="text/css">
	.st0{fill:#5FA7F3;}
	.st1{fill:#979797;}
	.st2{fill:#63ADF3;}
</style>
<g>
	<g>
		<path class="st1" d="M15.8,64.9c0.2,0.1,0.3,0.1,0.5,0.1c0.3,0,0.6-0.1,0.9-0.4l8.8-8.4h16.6c3.4,0,6.2-2.8,6.2-6.2v-9.4
			c0-0.7-0.6-1.3-1.3-1.3c-0.7,0-1.3,0.6-1.3,1.3V50c0,2-1.7,3.7-3.7,3.7H25.4c-0.3,0-0.6,0.1-0.9,0.4l-7,6.7V55
			c0-0.7-0.6-1.3-1.3-1.3h-3.9c-2,0-3.7-1.7-3.7-3.7V31.6c0-2,1.7-3.7,3.7-3.7h15.1c0.7,0,1.3-0.6,1.3-1.3c0-0.7-0.6-1.3-1.3-1.3
			H12.4c-3.4,0-6.2,2.8-6.2,6.2V50c0,3.4,2.8,6.2,6.2,6.2H15v7.5C15,64.3,15.3,64.7,15.8,64.9z"/>
		<path class="st2" d="M54.9,36.1l8.9,8.5c0.2,0.2,0.6,0.4,0.9,0.4c0.2,0,0.3,0,0.5-0.1c0.5-0.2,0.8-0.7,0.8-1.2v-7.6h2.6
			c3.5,0,6.3-2.8,6.3-6.3V11.3c0-3.5-2.8-6.3-6.3-6.3H38.2c-3.5,0-6.3,2.8-6.3,6.3v18.5c0,3.5,2.8,6.3,6.3,6.3H54.9L54.9,36.1z
			 M34.5,29.8V11.3c0-2.1,1.7-3.7,3.7-3.7h30.4c2.1,0,3.7,1.7,3.7,3.7v18.5c0,2.1-1.7,3.7-3.7,3.7h-3.9c-0.7,0-1.3,0.6-1.3,1.3v5.9
			l-7.1-6.8c-0.2-0.2-0.5-0.4-0.9-0.4H38.2C36.2,33.6,34.5,31.9,34.5,29.8z"/>
		<path class="st2" d="M53.4,22.1c0.3,0,0.7-0.1,0.9-0.4s0.4-0.6,0.4-0.9c0-0.3-0.1-0.7-0.4-0.9c-0.2-0.2-0.6-0.4-0.9-0.4
			c-0.3,0-0.7,0.1-0.9,0.4c-0.2,0.2-0.4,0.6-0.4,0.9c0,0.3,0.1,0.7,0.4,0.9C52.7,22,53,22.1,53.4,22.1z"/>
		<path class="st2" d="M58.1,22.1c0.3,0,0.7-0.1,0.9-0.4s0.4-0.6,0.4-0.9c0-0.3-0.1-0.7-0.4-0.9c-0.2-0.2-0.6-0.4-0.9-0.4
			s-0.7,0.1-0.9,0.4c-0.2,0.2-0.4,0.6-0.4,0.9c0,0.3,0.1,0.7,0.4,0.9C57.5,22,57.8,22.1,58.1,22.1z"/>
		<path class="st2" d="M48.7,22.1c0.3,0,0.7-0.1,0.9-0.4c0.2-0.2,0.4-0.6,0.4-0.9c0-0.3-0.1-0.7-0.4-0.9c-0.2-0.2-0.6-0.4-0.9-0.4
			c-0.3,0-0.7,0.1-0.9,0.4c-0.2,0.2-0.4,0.6-0.4,0.9c0,0.3,0.1,0.7,0.4,0.9C48,22,48.3,22.1,48.7,22.1z"/>
	</g>
</g>
</svg>
