<?xml version="1.0" encoding="utf-8"?>
<!-- Generator: Adobe Illustrator 21.0.0, SVG Export Plug-In . SVG Version: 6.00 Build 0)  -->
<svg version="1.1" id="Capa_1" xmlns="http://www.w3.org/2000/svg" xmlns:xlink="http://www.w3.org/1999/xlink" x="0px" y="0px"
	 viewBox="0 0 81 70" style="enable-background:new 0 0 81 70;" xml:space="preserve">
<style type="text/css">
	.st0{fill:#5FA7F3;}
	.st1{fill:#979797;}
	.st2{fill:#63ADF3;}
</style>
<g>
	<g>
		<path class="st0" d="M7.4,48.9c-0.1,1.9,0.2,3.8,0.9,5.5C7.8,52.6,7.5,50.7,7.4,48.9L7.4,48.9z"/>
	</g>
	<g>
		<path class="st0" d="M32.5,58.3c-0.5,0.5-1,1-1.5,1.5c-0.1,0.1-0.1,0.2-0.2,0.2c0.5-0.5,1-1,1.5-1.5
			C32.4,58.4,32.5,58.4,32.5,58.3L32.5,58.3z"/>
	</g>
	<g>
		<path class="st0" d="M49.2,56.9c0.1,0.1,0.1,0.1,0.2,0.2c0.6,0.5,1.1,0.9,1.7,1.2c-0.1-0.1-0.1-0.1-0.2-0.2
			C50.4,57.7,49.8,57.2,49.2,56.9L49.2,56.9z"/>
	</g>
	<g>
		<path class="st0" d="M72.4,43.3c0.2,1.9,0.2,3.7,0,5.6C72.8,47.1,72.8,45.2,72.4,43.3L72.4,43.3z"/>
	</g>
	<g>
		<path class="st0" d="M32.5,58.3c-0.5,0.5-1,1-1.5,1.5c-0.1,0.1-0.1,0.2-0.2,0.2c0.5-0.5,1-1,1.5-1.5
			C32.4,58.4,32.5,58.4,32.5,58.3L32.5,58.3z"/>
	</g>
	<g>
		<path class="st0" d="M49.2,56.9c0.1,0.1,0.1,0.1,0.2,0.2c0.6,0.5,1.1,0.9,1.7,1.2c-0.1-0.1-0.1-0.1-0.2-0.2
			C50.4,57.7,49.8,57.2,49.2,56.9L49.2,56.9z"/>
	</g>
	<g>
		<path class="st0" d="M32.5,58.3c-0.5,0.5-1,1-1.5,1.5c-0.1,0.1-0.1,0.2-0.2,0.2c0.5-0.5,1-1,1.5-1.5
			C32.4,58.4,32.5,58.4,32.5,58.3L32.5,58.3z"/>
	</g>
	<g>
		<path class="st0" d="M49.2,56.9c0.1,0.1,0.1,0.1,0.2,0.2c0.6,0.5,1.1,0.9,1.7,1.2c-0.1-0.1-0.1-0.1-0.2-0.2
			C50.4,57.7,49.8,57.2,49.2,56.9L49.2,56.9z"/>
	</g>
	<g>
		<path class="st0" d="M22.5,36.4L22.5,36.4c1.4,0,2.8,0.5,3.8,1.4c1.2,1,2,2.5,2.1,4c0.1,1.6-0.4,3.1-1.4,4.3
			c-1.1,1.3-2.8,2.1-4.6,2.1c-1.4,0-2.8-0.5-3.8-1.4c-1.2-1-2-2.5-2.1-4c-0.1-1.6,0.4-3.1,1.4-4.3C19.1,37.2,20.8,36.4,22.5,36.4
			 M22.5,34.7c-2.2,0-4.4,0.9-5.9,2.7c-2.7,3.2-2.3,8.1,0.9,10.8c1.4,1.2,3.2,1.8,4.9,1.8c2.2,0,4.4-0.9,5.9-2.7
			c2.7-3.2,2.3-8.1-0.9-10.8C26,35.3,24.3,34.7,22.5,34.7L22.5,34.7z"/>
	</g>
	<g>
		<ellipse transform="matrix(0.6447 -0.7644 0.7644 0.6447 -15.4102 55.6014)" class="st0" cx="52.1" cy="44.4" rx="3.8" ry="3.8"/>
	</g>
	<g>
		<ellipse transform="matrix(0.6447 -0.7644 0.7644 0.6447 -6.3543 57.8143)" class="st0" cx="59" cy="35.7" rx="3.8" ry="3.8"/>
	</g>
	<g>
		
			<rect x="19.3" y="19.1" transform="matrix(0.996 -8.922034e-02 8.922034e-02 0.996 -1.7273 1.9726)" class="st0" width="3.8" height="2.3"/>
	</g>
	<g>
		
			<rect x="53.2" y="15.9" transform="matrix(0.996 -8.922034e-02 8.922034e-02 0.996 -1.3036 4.9869)" class="st0" width="3.8" height="2.3"/>
	</g>
	<g>
		<path class="st1" d="M36.8,23.5c0-0.6-1-14.9,9.5-21.1l1.3,2.2c-9.1,5.4-8.3,18.6-8.3,18.7L36.8,23.5z"/>
	</g>
	<g>
		<path class="st0" d="M55,20.6L55,20.6c0.2,0,0.4,0,0.6,0c1.3,0.8,2.6,1.7,3.8,2.7c0.2,0.2,0.5,0.4,0.7,0.6
			c5.7,5.1,9.2,12.1,9.9,19.7c0.2,1.7,0.2,3.3,0,5c-0.4,1.9-1.2,3.6-2.5,5.1c-2.2,2.6-5.4,4.1-8.9,4.1c-2.1,0-4.1-0.6-5.9-1.6
			l-0.1,0c-0.6-0.5-1.3-1-2-1.5c-2.6-1.6-5.7-2.5-8.8-2.5c-3.8,0-7.4,1.3-10.4,3.6l-0.3,0l-0.6,0.7c-0.6,0.5-1.1,1.1-1.6,1.7
			c0,0,0,0-0.1,0.1c-2.1,1.8-4.7,2.7-7.5,2.7c-2.7,0-5.4-1-7.5-2.7c-1.5-1.2-2.6-2.8-3.3-4.6c-0.4-1.6-0.7-3.3-0.8-4.9
			c-0.6-7.9,1.9-15.7,7-21.8c0.3-0.3,0.5-0.6,0.8-0.9c0.5-0.6,1.1-1.2,1.7-1.7c0.8-0.5,1.8-0.8,2.7-0.8c0.8,0,1.6,0.2,2.3,0.5
			c0.5,0.4,1,0.8,1.5,1.1c3.2,2.1,7,3.2,10.9,3.2c5,0,9.7-1.8,13.4-5.1l1.7-0.2l-0.1-1.4c0.1-0.1,0.2-0.2,0.3-0.2
			C53,20.9,54,20.6,55,20.6 M55,18c-1.5,0-3,0.5-4.3,1.3c-0.3,0.2-0.5,0.4-0.8,0.6c-0.2,0.3-0.5,0.5-0.7,0.8c0,0,0,0,0,0
			c-3.4,3.3-7.8,5-12.3,5c-3.3,0-6.6-0.9-9.5-2.8c-0.5-0.3-1-0.7-1.5-1.1c-1.1-0.6-2.4-0.9-3.7-0.9c-1.5,0-3,0.5-4.3,1.3
			c-0.7,0.6-1.4,1.3-2,2c-0.3,0.3-0.6,0.6-0.8,1c-5.8,6.8-8.2,15.4-7.6,23.6c0.1,1.9,0.5,3.7,0.9,5.5c0.8,2.2,2.2,4.2,4.1,5.8
			c2.7,2.2,5.9,3.3,9.1,3.3c3.4,0,6.7-1.2,9.3-3.5c0.1-0.1,0.1-0.2,0.2-0.2c0.5-0.6,1-1.1,1.5-1.5c0,0,0,0,0,0
			c2.6-2.3,6-3.5,9.3-3.5c2.6,0,5.1,0.7,7.4,2.1c0.6,0.4,1.2,0.8,1.7,1.2c0.1,0.1,0.1,0.1,0.2,0.2c2.3,1.4,4.8,2.1,7.4,2.1
			c4,0,8-1.7,10.8-5c1.6-1.9,2.6-4.1,3.1-6.4c0.2-1.9,0.1-3.8,0-5.6c-0.7-7.9-4.3-15.6-10.7-21.3c-0.2-0.2-0.5-0.4-0.8-0.7
			c-1.4-1.2-3-2.3-4.5-3.2C56,18,55.5,18,55,18L55,18z"/>
	</g>
</g>
</svg>
