<?xml version="1.0" encoding="UTF-8"?>
<!DOCTYPE svg PUBLIC "-//W3C//DTD SVG 1.1//EN" "http://www.w3.org/Graphics/SVG/1.1/DTD/svg11.dtd">
<!-- Creator: CorelDRAW X8 -->
<svg xmlns="http://www.w3.org/2000/svg" xml:space="preserve" width="100mm" height="100mm" version="1.1" style="shape-rendering:geometricPrecision; text-rendering:geometricPrecision; image-rendering:optimizeQuality; fill-rule:evenodd; clip-rule:evenodd"
viewBox="0 0 10000 10000"
 xmlns:xlink="http://www.w3.org/1999/xlink">
 <defs>
  <style type="text/css">
   <![CDATA[
    .fil0 {fill:#A9ABAE}
   ]]>
  </style>
 </defs>
 <g id="Capa_x0020_1">
  <metadata id="CorelCorpID_0Corel-Layer"/>
  <path class="fil0" d="M5544 5350l-1805 0 0 1823 1805 0c311,0 552,-80 722,-242 172,-160 259,-389 259,-683 0,-289 -85,-509 -259,-666 -173,-157 -411,-232 -722,-232zm1266 -2817c316,240 474,601 474,1086 0,294 -72,546 -215,755 -144,209 -350,373 -618,487l0 16c359,77 632,247 817,510 185,265 278,595 278,994 0,228 -41,443 -123,640 -81,200 -209,371 -384,515 -175,144 -397,258 -670,343 -273,85 -596,128 -972,128l-2680 0 0 -5834 2835 0c523,0 943,119 1258,360zm-6810 -866l0 6666c0,917 750,1667 1667,1667l6666 0c917,0 1667,-750 1667,-1667l0 -6666c0,-917 -750,-1667 -1667,-1667l-6666 0c-917,0 -1667,750 -1667,1667zm6263 2139c0,-295 -73,-502 -221,-621 -147,-120 -359,-180 -637,-180l-1666 0 0 1611 1666 0c245,0 450,-69 613,-209 163,-141 245,-340 245,-601z"/>
 </g>
</svg>
