<?xml version="1.0" encoding="UTF-8"?>
<!DOCTYPE svg PUBLIC "-//W3C//DTD SVG 1.1//EN" "http://www.w3.org/Graphics/SVG/1.1/DTD/svg11.dtd">
<!-- Creator: CorelDRAW X8 -->
<svg xmlns="http://www.w3.org/2000/svg" xml:space="preserve" width="93.1mm" height="100mm" version="1.1" style="shape-rendering:geometricPrecision; text-rendering:geometricPrecision; image-rendering:optimizeQuality; fill-rule:evenodd; clip-rule:evenodd"
viewBox="0 0 9310 10000"
 xmlns:xlink="http://www.w3.org/1999/xlink">
 <defs>
  <style type="text/css">
   <![CDATA[
    .fil0 {fill:#A9ABAE}
   ]]>
  </style>
 </defs>
 <g id="Capa_x0020_1">
  <metadata id="CorelCorpID_0Corel-Layer"/>
  <g id="_2806498938400">
   <g>
    <polygon class="fil0" points="3805,5270 4655,5270 4655,5270 4655,5270 5505,5270 4655,3225 "/>
    <path class="fil0" d="M4655 0l0 0 0 0 -4655 1660 710 6155 3945 2185 0 0 0 0 3945 -2185 710 -6155 -4655 -1660zm2905 7630l-1085 0 0 0 -585 -1460 -1235 0 0 0 0 0 -1235 0 -585 1460 0 0 -1085 0 0 0 2905 -6525 0 0 0 0 0 0 0 0 2905 6525 0 0z"/>
   </g>
  </g>
 </g>
</svg>
