<?xml version="1.0" encoding="UTF-8"?>
<!DOCTYPE svg PUBLIC "-//W3C//DTD SVG 1.1//EN" "http://www.w3.org/Graphics/SVG/1.1/DTD/svg11.dtd">
<!-- Creator: CorelDRAW X8 -->
<svg xmlns="http://www.w3.org/2000/svg" xml:space="preserve" width="100mm" height="100mm" version="1.1" style="shape-rendering:geometricPrecision; text-rendering:geometricPrecision; image-rendering:optimizeQuality; fill-rule:evenodd; clip-rule:evenodd"
viewBox="0 0 10000 10000"
 xmlns:xlink="http://www.w3.org/1999/xlink">
 <defs>
  <style type="text/css">
   <![CDATA[
    .fil0 {fill:#A9ABAE}
    .fil1 {fill:#666666}
    .fil2 {fill:white}
    .fil3 {fill:#A9ABAE;fill-opacity:0.658824}
   ]]>
  </style>
 </defs>
 <g id="Capa_x0020_1">
  <metadata id="CorelCorpID_0Corel-Layer"/>
  <g id="_2806498943456">
   <g>
    <polygon class="fil0" points="23768,-5893 24618,-5893 24618,-5893 24618,-5893 25468,-5893 24618,-7938 "/>
    <path class="fil0" d="M24618 -11163l0 0 0 0 -4655 1660 710 6155 3945 2185 0 0 0 0 3945 -2185 710 -6155 -4655 -1660zm2905 7630l-1085 0 0 0 -585 -1460 -1235 0 0 0 0 0 -1235 0 -585 1460 0 0 -1085 0 0 0 2905 -6525 0 0 0 0 0 0 0 0 2905 6525 0 0z"/>
   </g>
  </g>
  <g id="solid" inkscape:version="0.48.1 r9760" sodipodi:docname="twitter_bootstrap_logo.svg" xmlns:cc="http://creativecommons.org/ns#" xmlns:dc="http://purl.org/dc/elements/1.1/" xmlns:inkscape="http://www.inkscape.org/namespaces/inkscape" xmlns:rdf="http://www.w3.org/1999/02/22-rdf-syntax-ns#" xmlns:sodipodi="http://sodipodi.sourceforge.net/DTD/sodipodi-0.dtd" xmlns:svg="http://www.w3.org/2000/svg">
   <path id="bg" class="fil1" d="M-6525 -739c0,917 -750,1667 -1667,1667l-6667 0c-916,0 -1666,-750 -1666,-1667l0 -6666c0,-917 750,-1667 1666,-1667l6667 0c917,0 1667,750 1667,1667l0 6666z"/>
   <g id="B">
    <path class="fil2" d="M-13808 -6899l2835 0c523,0 943,119 1258,360 315,240 474,601 474,1086 0,294 -72,546 -216,755 -144,209 -350,373 -618,487l0 16c360,77 633,247 817,510 185,265 278,595 278,994 0,228 -41,443 -122,640 -82,200 -209,371 -384,515 -175,144 -397,258 -670,343 -273,85 -597,128 -972,128l-2680 0 0 -5834 0 0zm1021 2443l1667 0c245,0 449,-69 612,-209 164,-141 246,-340 246,-601 0,-295 -74,-502 -221,-621 -147,-120 -359,-180 -637,-180l-1667 0 0 1611 0 0zm0 2557l1806 0c310,0 552,-80 722,-242 171,-160 258,-389 258,-683 0,-289 -85,-509 -258,-666 -173,-157 -412,-232 -722,-232l-1806 0 0 1823z"/>
   </g>
  </g>
  <g id="_2806498935104">
   <g>
    <path class="fil0" d="M7340 1460c-546,44 -1004,240 -1345,579 -352,348 -519,773 -519,1312 0,807 331,1370 1069,1817 188,113 444,236 886,426 603,259 827,382 970,535 177,190 226,492 114,723 -21,45 -78,120 -128,171 -171,172 -440,263 -774,263 -563,0 -984,-232 -1322,-732 -46,-66 -88,-121 -94,-121 -13,0 -1113,634 -1136,656 -15,13 -3,44 53,136 440,740 1126,1174 2054,1298 243,33 698,32 931,0 584,-82 1022,-276 1362,-606 361,-348 539,-799 539,-1364 0,-362 -59,-643 -194,-922 -92,-191 -185,-320 -344,-482 -305,-309 -699,-543 -1487,-881 -596,-256 -795,-366 -927,-506 -125,-135 -179,-292 -167,-489 10,-156 53,-262 148,-364 138,-149 297,-211 543,-210 279,0 459,72 643,257 65,64 149,167 188,229 45,71 78,110 89,105 38,-16 1089,-695 1089,-705 0,-6 -54,-90 -119,-188 -138,-208 -389,-468 -561,-582 -318,-212 -657,-320 -1105,-353 -220,-18 -249,-18 -456,-2z"/>
    <path class="fil0" d="M2840 4087l-4 2555 -32 120c-42,158 -91,252 -178,339 -121,121 -277,172 -537,173 -372,2 -594,-156 -853,-598 -42,-70 -80,-126 -84,-125 -6,3 -267,161 -581,350l-571 347 43 87c259,516 707,906 1246,1085 570,190 1301,172 1838,-43 643,-260 1020,-798 1120,-1597 9,-81 14,-985 14,-2684l0 -2563 -708 0 -707 0 -6 2554z"/>
   </g>
  </g>
  <path class="fil0" d="M-21980 9312c-53,0 -103,-27 -132,-74l-1164 -1942 -2175 592c-69,18 -143,-13 -176,-77l-2543 -4783c-24,-45 -24,-98 -1,-143 23,-45 66,-75 116,-82l2161 -291c61,-8 121,21 153,74l2609 4352 3031 -824 -1012 -1427c-29,-42 -36,-95 -18,-144 18,-47 59,-83 108,-95l1419 -335c58,-14 118,8 155,54l1227 1532c32,40 42,94 26,144 -16,49 -56,87 -106,100l-1293 352 1128 1589c28,39 35,89 21,135 -15,46 -50,83 -96,99l-3387 1186c-16,6 -34,8 -51,8zm-987 -2100l1055 1760 3075 -1077 -1074 -1515 -3056 832zm-4828 -4133l2381 4479 1973 -536 -2513 -4191 -1841 248zm7065 1616l946 1332 1175 -319 -1019 -1273 -1102 260z"/>
  <g id="_2771354626672">
   <g>
    <g>
     <path class="fil0" d="M-23529 17689c-33,0 -65,-9 -94,-25l-301 -179c-45,-24 -23,-33 -9,-38 61,-20 72,-25 136,-61 6,-5 15,-2 22,2l231 138c9,5 20,5 27,0l904 -522c9,-5 14,-14 14,-25l0 -1042c0,-11 -5,-20 -14,-25l-902 -520c-9,-4 -20,-4 -27,0l-902 520c-9,5 -14,16 -14,25l0 1042c0,9 5,20 14,25l246 142c134,68 217,-11 217,-90l0 -1029c0,-13 12,-27 28,-27l115 0c13,0 27,12 27,27l0 1029c0,179 -97,282 -267,282 -52,0 -92,0 -208,-56l-237 -136c-59,-34 -95,-97 -95,-165l0 -1042c0,-68 36,-131 95,-165l904 -522c57,-32 133,-32 190,0l904 522c59,34 95,97 95,165l0 1042c0,68 -36,131 -95,165l-904 522c-34,12 -66,21 -100,21z"/>
     <path class="fil0" d="M-23250 16972c-396,0 -477,-181 -477,-334 0,-14 11,-27 27,-27l117 0c14,0 25,9 25,22 18,120 70,179 310,179 190,0 271,-43 271,-145 0,-59 -23,-102 -319,-131 -246,-25 -400,-79 -400,-276 0,-183 154,-291 412,-291 289,0 431,99 449,316 0,7 -2,14 -6,20 -5,5 -12,10 -18,10l-120 0c-12,0 -23,-10 -25,-21 -27,-124 -97,-165 -283,-165 -208,0 -232,72 -232,127 0,65 29,86 309,122 278,36 409,88 409,285 0,196 -162,309 -449,309z"/>
    </g>
    <g>
     <path class="fil0" d="M-21948 15878c0,95 -80,174 -175,174 -94,0 -174,-77 -174,-174 0,-99 82,-174 174,-174 95,0 175,75 175,174zm-319 0c0,82 65,147 144,147 82,0 147,-68 147,-147 0,-81 -65,-144 -147,-144 -79,-3 -144,63 -144,144zm79 -97l68 0c22,0 68,0 68,52 0,36 -23,43 -37,48 27,2 30,20 32,45 2,16 5,43 9,52l-41 0c0,-9 -6,-59 -6,-61 -3,-12 -7,-16 -21,-16l-34 0 0 79 -38 0 0 -199zm38 86l30 0c25,0 29,-18 29,-27 0,-27 -18,-27 -29,-27l-32 0 0 54 2 0z"/>
    </g>
    <path class="fil0" d="M-26325 13611c0,-41 -22,-79 -58,-99l-959 -552c-16,-9 -34,-13 -52,-16 -2,0 -9,0 -9,0 -18,0 -36,7 -52,16l-958 552c-36,20 -59,58 -59,99l2 1483c0,20 12,41 30,50 18,11 40,11 56,0l570 -326c36,-20 59,-59 59,-99l0 -694c0,-41 22,-79 58,-100l242 -140c18,-11 39,-16 59,-16 20,0 41,5 56,16l242 140c37,21 59,59 59,100l0 694c0,40 23,79 59,99l570 326c18,11 40,11 58,0 18,-9 30,-30 30,-50l-3 -1483z"/>
    <path class="fil0" d="M-21718 11572c-18,-9 -41,-9 -56,0 -19,12 -30,30 -30,50l0 1469c0,14 -7,27 -20,36 -14,7 -27,7 -41,0l-239 -138c-37,-20 -80,-20 -116,0l-958 554c-36,21 -59,59 -59,100l0 1105c0,41 23,79 59,100l958 553c36,21 79,21 116,0l958 -553c36,-21 59,-59 59,-100l0 -2758c0,-43 -23,-81 -59,-101l-572 -317zm-90 2812c0,11 -5,20 -14,25l-328 190c-9,4 -20,4 -29,0l-328 -190c-9,-5 -13,-16 -13,-25l0 -380c0,-11 4,-20 13,-24l328 -190c9,-5 20,-5 29,0l328 190c9,4 14,15 14,24l0 380z"/>
    <g>
     <path class="fil0" d="M-18529 13995c37,-20 57,-58 57,-99l0 -269c0,-41 -23,-79 -57,-100l-951 -551c-36,-20 -79,-20 -115,0l-959 554c-36,20 -59,58 -59,99l0 1106c0,40 23,79 59,99l952 542c36,21 79,21 113,0l576 -321c18,-9 30,-29 30,-49 0,-21 -12,-41 -30,-50l-963 -554c-18,-11 -29,-29 -29,-49l0 -346c0,-21 11,-41 29,-50l301 -172c18,-11 41,-11 59,0l300 172c18,11 30,29 30,50l0 273c0,21 11,41 29,50 18,11 41,11 59,0l569 -335z"/>
     <path class="fil0" d="M-19552 13943c6,-4 15,-4 22,0l183 107c7,4 12,11 12,20l0 212c0,9 -5,16 -12,21l-183 106c-7,5 -16,5 -22,0l-184 -106c-6,-5 -11,-12 -11,-21l0 -214c0,-9 5,-16 11,-21l184 -104z"/>
    </g>
    <g>
     <path id="XMLID_67_" class="fil0" d="M-24837 12980c36,-20 79,-20 115,0l949 550c37,20 57,58 57,99l0 1096c0,41 -23,80 -57,100l-949 549c-36,21 -79,21 -115,0l-950 -549c-36,-20 -56,-59 -56,-100l0 -1096c0,-41 22,-79 56,-99l950 -550z"/>
     <g>
      <g>
       <g>
        <path class="fil0" d="M-24724 12980c-36,-20 -79,-20 -116,0l-949 550c-36,20 -56,58 -56,99l0 1096c0,41 22,80 56,100l949 549c37,21 80,21 116,0l949 -549c36,-20 57,-59 57,-100l0 -1096c0,-41 -23,-79 -57,-99l-949 -550z"/>
       </g>
       <g>
        <path class="fil0" d="M-24840 12980l-951 550c-36,20 -59,58 -59,99l0 1096c0,28 9,52 27,73l1069 -1829c-29,-9 -58,-4 -86,11z"/>
        <path class="fil0" d="M-24749 15383c7,-2 16,-4 22,-9l948 -549c36,-20 52,-59 52,-100l0 -1096c0,-27 -9,-54 -25,-74l-997 1828z"/>
        <path class="fil3" d="M-23779 13527l-945 -549c-9,-4 -21,-9 -30,-11l-1069 1829c9,11 21,20 32,27l951 549c30,16 61,20 91,9l999 -1829c-7,-9 -16,-18 -29,-25z"/>
       </g>
      </g>
      <g>
       <g>
        <path class="fil0" d="M-24724 12980c-36,-20 -79,-20 -116,0l-949 550c-36,20 -56,58 -56,99l0 1096c0,41 22,80 56,100l949 549c37,21 80,21 116,0l949 -549c36,-20 57,-59 57,-100l0 -1096c0,-41 -23,-79 -57,-99l-949 -550z"/>
       </g>
       <g>
        <path class="fil0" d="M-25780 13521l-11 6c-36,21 -59,59 -59,100l0 1096c0,41 23,79 59,100l951 549c25,16 55,18 84,11l-1024 -1862z"/>
        <path class="fil0" d="M-23725 13627c0,-41 -18,-79 -54,-100l-945 -549c-9,-4 -18,-9 -27,-11l1026 1752 0 -1092z"/>
        <path class="fil0" d="M-24727 15372l948 -549c36,-21 52,-59 52,-100l0 -4 -1027 -1752c-29,-9 -61,-5 -88,11l-940 543 1022 1862c13,0 24,-4 33,-11z"/>
       </g>
      </g>
     </g>
    </g>
   </g>
  </g>
  <g id="_2771354622288">
   <g>
    <path class="fil0" d="M-18417 -4094c0,-662 -829,-1290 -2102,-1679 295,-1297 165,-2328 -410,-2658 -133,-77 -288,-114 -458,-114l0 454c95,0 170,19 232,53 277,159 398,765 304,1543 -23,192 -60,394 -104,599 -398,-98 -836,-174 -1294,-223 -276,-377 -561,-719 -848,-1019 664,-617 1288,-955 1712,-955l0 -455 0 0c-561,0 -1295,399 -2036,1092 -742,-689 -1476,-1084 -2035,-1084l0 455c421,0 1048,336 1712,950 -285,299 -571,640 -842,1016 -461,49 -897,125 -1296,224 -46,-204 -82,-401 -106,-591 -95,-779 23,-1383 298,-1545 61,-37 141,-53 235,-53l0 -453 0 0c-171,0 -326,37 -461,114 -574,330 -702,1359 -407,2652 -1268,390 -2094,1016 -2094,1677 0,663 830,1291 2102,1679 -293,1296 -163,2327 412,2659 133,77 288,114 459,114 560,0 1294,-399 2035,-1092 742,689 1476,1084 2036,1084 171,0 326,-37 461,-114 572,-330 701,-1360 405,-2652 1265,-390 2090,-1018 2090,-1678zm-2653 -1359c-75,262 -169,534 -275,805 -84,-163 -171,-326 -267,-489 -94,-163 -193,-322 -293,-477 289,43 567,96 835,161zm-934 2170c-159,276 -322,536 -492,780 -303,26 -611,41 -921,41 -307,0 -615,-15 -917,-39 -169,-242 -334,-501 -493,-774 -155,-266 -295,-538 -424,-811 126,-273 269,-546 422,-813 159,-276 322,-536 491,-780 304,-26 611,-41 921,-41 308,0 615,15 917,39 170,242 334,501 493,774 155,266 296,538 424,811 -127,273 -267,546 -421,813zm658 -265c110,273 205,546 281,811 -266,65 -548,121 -840,163 100,-156 200,-318 293,-483 96,-162 183,-328 266,-491zm-2065 2175c-190,-196 -380,-414 -568,-652 183,8 371,14 561,14 192,0 382,-3 567,-14 -184,238 -374,456 -560,652zm-1518 -1201c-289,-42 -568,-95 -836,-161 75,-263 170,-534 276,-806 83,163 171,326 266,489 97,164 195,323 294,478zm1507 -4240c189,196 379,413 567,652 -183,-8 -371,-15 -560,-15 -193,0 -382,4 -568,15 183,-239 373,-458 561,-652zm-1508 1199c-100,156 -200,318 -293,484 -94,163 -182,326 -265,489 -110,-273 -204,-546 -281,-811 266,-64 547,-118 839,-162zm-1845 2552c-721,-307 -1189,-711 -1189,-1031 0,-319 467,-726 1189,-1031 175,-75 367,-143 565,-205 116,399 269,815 458,1242 -187,424 -338,837 -452,1235 -202,-65 -393,-134 -571,-210zm1096 2913c-277,-159 -397,-765 -303,-1542 22,-193 59,-394 103,-599 399,98 836,173 1295,222 275,378 560,720 848,1019 -664,618 -1288,956 -1712,956 -92,-3 -170,-21 -231,-56zm4834 -1553c96,779 -22,1383 -298,1545 -61,37 -140,53 -234,53 -422,0 -1049,-336 -1712,-950 284,-300 571,-640 841,-1016 461,-49 897,-125 1296,-224 49,205 86,402 107,592zm786 -1360c-175,76 -367,143 -564,206 -117,-399 -269,-815 -459,-1242 187,-424 338,-838 452,-1235 202,63 394,132 573,208 721,307 1188,712 1188,1031 -2,321 -469,726 -1190,1032z"/>
    <polygon class="fil0" points="-25459,-8540 -25459,-8540 "/>
    <circle class="fil0" cx="-23418" cy="-4094" r="932"/>
    <polygon class="fil0" points="-21388,-8545 -21388,-8545 "/>
   </g>
  </g>
  <path class="fil0" d="M37118 -5946l-1805 0 0 1824 1805 0c311,0 553,-80 723,-242 171,-160 258,-389 258,-683 0,-289 -85,-510 -258,-667 -174,-157 -412,-232 -723,-232zm1267 -2817c315,240 474,602 474,1087 0,294 -72,546 -216,755 -144,209 -350,372 -618,487l0 16c360,77 633,247 817,510 185,265 278,595 278,993 0,229 -41,443 -122,641 -82,199 -210,371 -384,515 -175,143 -398,258 -670,343 -273,85 -597,127 -973,127l-2679 0 0 -5833 2835 0c522,0 942,119 1258,359zm-6811 -866l0 6667c0,917 750,1667 1667,1667l6667 0c916,0 1666,-750 1666,-1667l0 -6667c0,-916 -750,-1666 -1666,-1666l-6667 0c-917,0 -1667,750 -1667,1666zm6263 2139c0,-294 -73,-501 -220,-621 -147,-119 -360,-180 -637,-180l-1667 0 0 1612 1667 0c245,0 449,-69 612,-210 164,-140 245,-339 245,-601z"/>
 </g>
</svg>
