<?xml version="1.0" encoding="UTF-8"?>
<!DOCTYPE svg PUBLIC "-//W3C//DTD SVG 1.1//EN" "http://www.w3.org/Graphics/SVG/1.1/DTD/svg11.dtd">
<!-- Creator: CorelDRAW X8 -->
<svg xmlns="http://www.w3.org/2000/svg" xml:space="preserve" width="100mm" height="100mm" version="1.1" style="shape-rendering:geometricPrecision; text-rendering:geometricPrecision; image-rendering:optimizeQuality; fill-rule:evenodd; clip-rule:evenodd"
viewBox="0 0 10000 10000"
 xmlns:xlink="http://www.w3.org/1999/xlink">
 <defs>
  <style type="text/css">
   <![CDATA[
    .fil0 {fill:#A9ABAE}
    .fil1 {fill:#666666}
    .fil2 {fill:white}
    .fil3 {fill:#A9ABAE;fill-opacity:0.658824}
   ]]>
  </style>
 </defs>
 <g id="Capa_x0020_1">
  <metadata id="CorelCorpID_0Corel-Layer"/>
  <g id="_2806498945632">
   <g>
    <polygon class="fil0" points="23768,-5893 24618,-5893 24618,-5893 24618,-5893 25468,-5893 24618,-7938 "/>
    <path class="fil0" d="M24618 -11163l0 0 0 0 -4655 1660 710 6155 3945 2185 0 0 0 0 3945 -2185 710 -6155 -4655 -1660zm2905 7630l-1085 0 0 0 -585 -1460 -1235 0 0 0 0 0 -1235 0 -585 1460 0 0 -1085 0 0 0 2905 -6525 0 0 0 0 0 0 0 0 2905 6525 0 0z"/>
   </g>
  </g>
  <g id="solid" inkscape:version="0.48.1 r9760" sodipodi:docname="twitter_bootstrap_logo.svg" xmlns:cc="http://creativecommons.org/ns#" xmlns:dc="http://purl.org/dc/elements/1.1/" xmlns:inkscape="http://www.inkscape.org/namespaces/inkscape" xmlns:rdf="http://www.w3.org/1999/02/22-rdf-syntax-ns#" xmlns:sodipodi="http://sodipodi.sourceforge.net/DTD/sodipodi-0.dtd" xmlns:svg="http://www.w3.org/2000/svg">
   <path id="bg" class="fil1" d="M-6525 -739c0,917 -750,1667 -1667,1667l-6667 0c-916,0 -1666,-750 -1666,-1667l0 -6666c0,-917 750,-1667 1666,-1667l6667 0c917,0 1667,750 1667,1667l0 6666z"/>
   <g id="B">
    <path class="fil2" d="M-13808 -6899l2835 0c523,0 943,119 1258,360 315,240 474,601 474,1086 0,294 -72,546 -216,755 -144,209 -350,373 -618,487l0 16c360,77 633,247 817,510 185,265 278,595 278,994 0,228 -41,443 -122,640 -82,200 -209,371 -384,515 -175,144 -397,258 -670,343 -273,85 -597,128 -972,128l-2680 0 0 -5834 0 0zm1021 2443l1667 0c245,0 449,-69 612,-209 164,-141 246,-340 246,-601 0,-295 -74,-502 -221,-621 -147,-120 -359,-180 -637,-180l-1667 0 0 1611 0 0zm0 2557l1806 0c310,0 552,-80 722,-242 171,-160 258,-389 258,-683 0,-289 -85,-509 -258,-666 -173,-157 -412,-232 -722,-232l-1806 0 0 1823z"/>
   </g>
  </g>
  <g id="_2806498943360">
   <g>
    <path class="fil0" d="M26760 139c-546,44 -1004,240 -1345,578 -352,349 -519,774 -519,1313 0,807 331,1370 1069,1817 188,113 444,236 887,426 602,259 826,382 969,535 177,190 226,492 115,723 -22,45 -78,120 -129,171 -171,172 -439,263 -773,263 -564,0 -985,-232 -1323,-732 -46,-66 -88,-121 -94,-121 -13,0 -1113,634 -1136,656 -15,13 -3,43 53,136 440,740 1126,1174 2054,1298 243,33 699,32 931,0 584,-82 1022,-276 1362,-606 361,-348 539,-799 539,-1364 0,-362 -59,-643 -194,-922 -92,-191 -185,-320 -344,-482 -305,-309 -699,-543 -1487,-882 -596,-255 -795,-365 -927,-506 -125,-134 -179,-291 -167,-488 10,-156 53,-262 149,-364 137,-149 296,-211 542,-210 279,0 459,72 643,257 65,64 149,167 188,229 45,71 78,110 90,105 37,-16 1088,-695 1088,-705 0,-6 -53,-90 -119,-188 -138,-208 -388,-468 -560,-583 -318,-211 -658,-319 -1106,-352 -220,-18 -249,-18 -456,-2z"/>
    <path class="fil0" d="M22261 2766l-5 2555 -32 120c-41,158 -91,252 -177,339 -122,121 -278,172 -538,173 -372,2 -594,-156 -853,-598 -42,-70 -79,-126 -84,-125 -6,3 -267,161 -581,350l-571 347 44 87c258,516 706,906 1246,1085 569,190 1301,172 1837,-43 643,-260 1020,-798 1120,-1597 9,-81 15,-985 15,-2685l0 -2562 -709 0 -707 0 -5 2554z"/>
   </g>
  </g>
  <path class="fil0" d="M39467 6989c-53,0 -104,-28 -132,-75l-1165 -1942 -2175 592c-69,19 -143,-13 -176,-76l-2543 -4784c-24,-44 -24,-98 -1,-143 23,-45 67,-75 117,-82l2160 -290c61,-9 121,20 153,73l2610 4352 3031 -824 -1012 -1427c-30,-41 -37,-95 -19,-143 18,-48 59,-84 109,-96l1418 -334c58,-14 118,7 155,53l1227 1532c33,40 43,95 26,144 -15,49 -55,87 -106,101l-1292 351 1127 1589c28,39 36,90 21,136 -15,46 -50,82 -96,98l-3386 1186c-17,6 -34,9 -51,9zm-988 -2101l1055 1760 3075 -1077 -1074 -1514 -3056 831zm-4827 -4133l2381 4479 1973 -536 -2513 -4191 -1841 248zm7064 1616l946 1333 1175 -320 -1019 -1273 -1102 260z"/>
  <g id="_2771354621712">
   <g>
    <g>
     <path class="fil0" d="M27717 16321c-34,0 -65,-9 -95,-25l-301 -178c-45,-25 -22,-34 -9,-39 61,-20 73,-25 136,-61 7,-4 16,-2 23,3l230 137c9,5 21,5 27,0l905 -522c9,-4 13,-13 13,-25l0 -1042c0,-11 -4,-20 -13,-25l-902 -519c-9,-5 -21,-5 -27,0l-902 519c-9,5 -14,16 -14,25l0 1042c0,9 5,21 14,25l246 143c133,67 217,-12 217,-91l0 -1028c0,-14 11,-27 27,-27l115 0c14,0 28,11 28,27l0 1028c0,179 -98,283 -267,283 -52,0 -93,0 -208,-57l-238 -135c-58,-34 -94,-98 -94,-165l0 -1042c0,-68 36,-132 94,-165l905 -523c56,-31 133,-31 190,0l904 523c58,33 95,97 95,165l0 1042c0,67 -37,131 -95,165l-904 522c-34,11 -66,20 -100,20z"/>
     <path class="fil0" d="M27995 15605c-395,0 -477,-181 -477,-335 0,-14 11,-27 27,-27l118 0c13,0 25,9 25,23 18,119 70,178 309,178 190,0 272,-43 272,-145 0,-58 -23,-101 -319,-131 -246,-25 -400,-79 -400,-275 0,-184 154,-292 411,-292 290,0 432,99 450,316 0,7 -2,14 -7,21 -4,4 -11,9 -18,9l-120 0c-11,0 -22,-9 -25,-21 -27,-124 -97,-165 -282,-165 -208,0 -233,73 -233,127 0,66 30,86 310,122 278,36 409,88 409,285 0,197 -163,310 -450,310z"/>
    </g>
    <g>
     <path class="fil0" d="M29297 14511c0,94 -79,174 -174,174 -95,0 -174,-77 -174,-174 0,-100 81,-174 174,-174 95,0 174,74 174,174zm-319 0c0,81 66,146 145,146 81,0 147,-67 147,-146 0,-82 -66,-145 -147,-145 -79,-2 -145,63 -145,145zm79 -98l68 0c23,0 68,0 68,52 0,37 -22,43 -36,48 27,2 29,20 32,45 2,16 4,43 9,52l-41 0c0,-9 -7,-59 -7,-61 -2,-11 -7,-16 -20,-16l-34 0 0 79 -39 0 0 -199zm39 86l29 0c25,0 30,-18 30,-27 0,-27 -18,-27 -30,-27l-31 0 0 54 2 0z"/>
    </g>
    <path class="fil0" d="M24921 12243c0,-40 -23,-79 -59,-99l-958 -552c-16,-9 -34,-13 -52,-15 -2,0 -9,0 -9,0 -18,0 -36,6 -52,15l-959 552c-36,20 -58,59 -58,99l2 1483c0,21 11,41 29,50 18,11 41,11 57,0l569 -326c37,-20 59,-58 59,-99l0 -694c0,-41 23,-79 59,-99l242 -141c18,-11 38,-15 59,-15 20,0 40,4 56,15l242 141c36,20 59,58 59,99l0 694c0,41 22,79 58,99l570 326c18,11 41,11 59,0 18,-9 29,-29 29,-50l-2 -1483z"/>
    <path class="fil0" d="M29528 10204c-18,-9 -41,-9 -57,0 -18,12 -29,30 -29,50l0 1469c0,14 -7,28 -21,37 -13,6 -27,6 -40,0l-240 -138c-36,-21 -79,-21 -115,0l-959 554c-36,20 -58,58 -58,99l0 1105c0,41 22,79 58,100l959 554c36,20 79,20 115,0l959 -554c36,-21 58,-59 58,-100l0 -2757c0,-43 -22,-82 -58,-102l-572 -317zm-91 2812c0,12 -4,21 -13,25l-328 190c-9,5 -20,5 -29,0l-328 -190c-9,-4 -14,-16 -14,-25l0 -379c0,-12 5,-21 14,-25l328 -190c9,-5 20,-5 29,0l328 190c9,4 13,16 13,25l0 379z"/>
    <g>
     <path class="fil0" d="M32717 12628c36,-21 57,-59 57,-100l0 -269c0,-40 -23,-79 -57,-99l-952 -552c-36,-20 -79,-20 -115,0l-958 554c-36,20 -59,59 -59,99l0 1106c0,40 23,79 59,99l951 543c37,20 79,20 113,0l577 -321c18,-9 29,-30 29,-50 0,-20 -11,-41 -29,-50l-963 -553c-18,-12 -30,-30 -30,-50l0 -346c0,-20 12,-41 30,-50l301 -172c18,-11 40,-11 58,0l301 172c18,12 29,30 29,50l0 273c0,21 12,41 30,50 18,11 40,11 58,0l570 -334z"/>
     <path class="fil0" d="M31693 12576c7,-5 16,-5 23,0l183 106c7,4 11,11 11,20l0 213c0,9 -4,16 -11,20l-183 106c-7,5 -16,5 -23,0l-183 -106c-7,-4 -11,-11 -11,-20l0 -215c0,-9 4,-16 11,-20l183 -104z"/>
    </g>
    <g>
     <path id="XMLID_67_" class="fil0" d="M26408 11613c36,-21 79,-21 116,0l949 549c36,20 56,59 56,99l0 1097c0,40 -22,79 -56,99l-949 549c-37,21 -80,21 -116,0l-949 -549c-36,-20 -57,-59 -57,-99l0 -1097c0,-40 23,-79 57,-99l949 -549z"/>
     <g>
      <g>
       <g>
        <path class="fil0" d="M26521 11613c-36,-21 -79,-21 -115,0l-949 549c-36,20 -57,59 -57,99l0 1097c0,40 23,79 57,99l949 549c36,21 79,21 115,0l950 -549c36,-20 56,-59 56,-99l0 -1097c0,-40 -22,-79 -56,-99l-950 -549z"/>
       </g>
       <g>
        <path class="fil0" d="M26406 11613l-952 549c-36,20 -58,59 -58,99l0 1097c0,27 9,52 27,72l1069 -1829c-29,-9 -59,-4 -86,12z"/>
        <path class="fil0" d="M26496 14016c7,-3 16,-5 23,-10l947 -549c36,-20 52,-59 52,-99l0 -1097c0,-27 -9,-54 -25,-74l-997 1829z"/>
        <path class="fil3" d="M27466 12160l-945 -550c-9,-4 -20,-9 -29,-11l-1069 1829c9,11 20,20 31,27l952 549c29,16 61,21 90,9l1000 -1828c-7,-9 -16,-18 -30,-25z"/>
       </g>
      </g>
      <g>
       <g>
        <path class="fil0" d="M26521 11613c-36,-21 -79,-21 -115,0l-949 549c-36,20 -57,59 -57,99l0 1097c0,40 23,79 57,99l949 549c36,21 79,21 115,0l950 -549c36,-20 56,-59 56,-99l0 -1097c0,-40 -22,-79 -56,-99l-950 -549z"/>
       </g>
       <g>
        <path class="fil0" d="M25466 12153l-12 7c-36,20 -58,59 -58,99l0 1096c0,41 22,80 58,100l952 549c25,16 54,18 84,12l-1024 -1863z"/>
        <path class="fil0" d="M27520 12259c0,-40 -18,-79 -54,-99l-945 -550c-9,-4 -18,-9 -27,-11l1026 1752 0 -1092z"/>
        <path class="fil0" d="M26519 14004l947 -549c36,-20 52,-59 52,-100l0 -4 -1026 -1752c-29,-9 -61,-4 -88,11l-941 543 1022 1863c14,0 25,-5 34,-12z"/>
       </g>
      </g>
     </g>
    </g>
   </g>
  </g>
  <g id="_2771354619184">
   <g>
    <path class="fil0" d="M10000 5001c0,-662 -830,-1290 -2102,-1679 294,-1297 165,-2328 -411,-2658 -132,-77 -287,-114 -457,-114l0 455c94,0 170,18 232,53 277,159 398,764 304,1542 -23,192 -60,394 -104,599 -399,-98 -836,-174 -1294,-223 -276,-377 -561,-719 -849,-1019 664,-617 1288,-955 1713,-955l0 -455 0 0c-561,0 -1295,399 -2036,1092 -742,-689 -1476,-1084 -2035,-1084l0 455c421,0 1048,336 1712,950 -285,299 -571,640 -842,1016 -461,49 -897,125 -1296,224 -46,-204 -82,-401 -106,-591 -95,-779 23,-1383 298,-1545 61,-37 141,-53 235,-53l0 -453 0 0c-171,0 -326,37 -461,114 -574,330 -703,1360 -407,2652 -1268,391 -2094,1016 -2094,1677 0,663 830,1291 2102,1679 -293,1296 -163,2327 412,2659 132,77 287,114 458,114 561,0 1295,-399 2036,-1092 742,689 1476,1084 2035,1084 171,0 326,-37 462,-114 572,-330 701,-1360 405,-2652 1264,-390 2090,-1018 2090,-1678zm-2653 -1359c-76,262 -170,534 -276,805 -83,-163 -171,-326 -266,-489 -94,-163 -194,-322 -293,-477 289,43 567,96 835,161zm-934 2170c-159,276 -322,536 -492,780 -303,26 -611,41 -921,41 -307,0 -615,-15 -917,-39 -170,-242 -334,-501 -493,-774 -155,-266 -296,-538 -424,-811 126,-273 269,-546 421,-813 159,-276 322,-536 492,-780 303,-26 611,-41 921,-41 307,0 615,15 917,39 170,242 334,501 493,774 155,266 296,538 424,811 -127,273 -268,546 -421,813zm658 -265c110,273 204,546 281,811 -266,65 -548,121 -840,163 99,-156 200,-318 293,-483 95,-162 183,-328 266,-491zm-2066 2175c-189,-196 -379,-413 -567,-652 183,8 371,15 561,15 192,0 381,-4 567,-15 -184,239 -374,456 -561,652zm-1517 -1201c-289,-42 -569,-95 -836,-161 75,-263 169,-534 275,-806 84,163 171,326 267,489 96,164 195,323 294,478zm1507 -4240c189,196 379,413 567,652 -183,-8 -371,-15 -561,-15 -192,0 -381,4 -567,15 183,-239 373,-458 561,-652zm-1508 1199c-100,156 -200,318 -293,484 -94,163 -182,326 -265,489 -110,-273 -204,-546 -281,-811 266,-64 547,-118 839,-162zm-1845 2552c-721,-307 -1189,-711 -1189,-1031 0,-319 467,-726 1189,-1031 175,-75 367,-143 564,-205 117,399 269,815 459,1242 -187,424 -338,837 -452,1235 -203,-65 -393,-134 -571,-210zm1096 2913c-277,-159 -398,-764 -304,-1542 23,-193 60,-394 104,-599 399,98 836,173 1294,222 276,378 561,720 849,1019 -664,618 -1288,956 -1713,956 -91,-3 -169,-21 -230,-56zm4834 -1553c96,779 -22,1384 -298,1545 -61,37 -140,53 -235,53 -421,0 -1048,-336 -1712,-950 285,-299 571,-640 842,-1016 461,-49 897,-125 1296,-224 49,205 86,403 107,592zm786 -1360c-175,76 -367,143 -564,206 -117,-399 -269,-815 -459,-1242 187,-424 338,-837 452,-1235 201,64 393,132 572,208 721,307 1189,712 1189,1031 -3,321 -469,726 -1190,1032z"/>
    <polygon class="fil0" points="2958,555 2958,555 "/>
    <circle class="fil0" cx="4999" cy="5001" r="932"/>
    <polygon class="fil0" points="7029,550 7029,550 "/>
   </g>
  </g>
  <path class="fil0" d="M37118 -5946l-1805 0 0 1824 1805 0c311,0 553,-80 723,-242 171,-160 258,-389 258,-683 0,-289 -85,-510 -258,-667 -174,-157 -412,-232 -723,-232zm1267 -2817c315,240 474,602 474,1087 0,294 -72,546 -216,755 -144,209 -350,372 -618,487l0 16c360,77 633,247 817,510 185,265 278,595 278,993 0,229 -41,443 -122,641 -82,199 -210,371 -384,515 -175,143 -398,258 -670,343 -273,85 -597,127 -973,127l-2679 0 0 -5833 2835 0c522,0 942,119 1258,359zm-6811 -866l0 6667c0,917 750,1667 1667,1667l6667 0c916,0 1666,-750 1666,-1667l0 -6667c0,-916 -750,-1666 -1666,-1666l-6667 0c-917,0 -1667,750 -1667,1666zm6263 2139c0,-294 -73,-501 -220,-621 -147,-119 -360,-180 -637,-180l-1667 0 0 1612 1667 0c245,0 449,-69 612,-210 164,-140 245,-339 245,-601z"/>
 </g>
</svg>
