<?xml version="1.0" encoding="UTF-8"?>
<!DOCTYPE svg PUBLIC "-//W3C//DTD SVG 1.1//EN" "http://www.w3.org/Graphics/SVG/1.1/DTD/svg11.dtd">
<!-- Creator: CorelDRAW X8 -->
<svg xmlns="http://www.w3.org/2000/svg" xml:space="preserve" width="100mm" height="100mm" version="1.1" style="shape-rendering:geometricPrecision; text-rendering:geometricPrecision; image-rendering:optimizeQuality; fill-rule:evenodd; clip-rule:evenodd"
viewBox="0 0 10000 10000"
 xmlns:xlink="http://www.w3.org/1999/xlink">
 <defs>
  <style type="text/css">
   <![CDATA[
    .fil0 {fill:#A9ABAE}
   ]]>
  </style>
 </defs>
 <g id="Capa_x0020_1">
  <metadata id="CorelCorpID_0Corel-Layer"/>
  <g id="_2771354621200">
   <g>
    <g>
     <path class="fil0" d="M4943 8062c-33,0 -65,-9 -94,-25l-301 -179c-45,-24 -23,-33 -9,-38 61,-20 72,-25 136,-61 6,-5 15,-2 22,2l231 138c9,5 20,5 27,0l904 -522c9,-5 14,-14 14,-25l0 -1042c0,-11 -5,-20 -14,-25l-902 -520c-9,-4 -20,-4 -27,0l-902 520c-9,5 -14,16 -14,25l0 1042c0,9 5,20 14,25l246 142c134,68 217,-11 217,-90l0 -1029c0,-13 12,-27 28,-27l115 0c13,0 27,12 27,27l0 1029c0,179 -97,282 -267,282 -52,0 -92,0 -208,-56l-237 -136c-59,-34 -95,-97 -95,-165l0 -1042c0,-68 36,-131 95,-165l904 -522c57,-32 133,-32 190,0l904 522c59,34 95,97 95,165l0 1042c0,68 -36,131 -95,165l-904 522c-34,12 -66,21 -100,21z"/>
     <path class="fil0" d="M5222 7345c-396,0 -477,-181 -477,-334 0,-14 11,-27 27,-27l117 0c14,0 25,9 25,22 18,120 70,179 310,179 190,0 271,-43 271,-145 0,-59 -23,-102 -319,-131 -246,-25 -400,-79 -400,-276 0,-183 154,-291 412,-291 289,0 431,99 449,316 0,7 -2,14 -6,20 -5,5 -12,10 -18,10l-120 0c-12,0 -23,-10 -25,-21 -27,-124 -97,-165 -283,-165 -208,0 -232,72 -232,127 0,65 29,86 309,122 278,36 409,88 409,285 0,196 -162,309 -449,309z"/>
    </g>
    <g>
     <path class="fil0" d="M6524 6251c0,95 -80,174 -175,174 -94,0 -174,-77 -174,-174 0,-99 82,-174 174,-174 95,0 175,75 175,174zm-319 0c0,82 65,147 144,147 82,0 147,-68 147,-147 0,-81 -65,-144 -147,-144 -79,-3 -144,63 -144,144zm79 -97l68 0c22,0 68,0 68,52 0,36 -23,43 -37,48 27,2 30,20 32,45 2,16 5,43 9,52l-41 0c0,-9 -6,-59 -6,-61 -3,-12 -7,-16 -21,-16l-34 0 0 79 -38 0 0 -199zm38 86l30 0c25,0 29,-18 29,-27 0,-27 -18,-27 -29,-27l-32 0 0 54 2 0z"/>
    </g>
    <path class="fil0" d="M2147 3984c0,-41 -22,-79 -58,-99l-959 -552c-16,-9 -34,-13 -52,-16 -2,0 -9,0 -9,0 -18,0 -36,7 -52,16l-958 552c-36,20 -59,58 -59,99l2 1483c0,20 12,41 30,50 18,11 40,11 56,0l570 -326c36,-20 59,-59 59,-99l0 -694c0,-41 22,-79 58,-100l242 -140c18,-11 39,-16 59,-16 20,0 41,5 56,16l242 140c37,21 59,59 59,100l0 694c0,40 23,79 59,99l570 326c18,11 40,11 58,0 18,-9 30,-30 30,-50l-3 -1483z"/>
    <path class="fil0" d="M6754 1945c-18,-9 -41,-9 -56,0 -19,12 -30,30 -30,50l0 1469c0,14 -7,27 -20,36 -14,7 -27,7 -41,0l-239 -138c-37,-20 -80,-20 -116,0l-958 554c-36,21 -59,59 -59,100l0 1105c0,41 23,79 59,100l958 553c36,21 79,21 116,0l958 -553c36,-21 59,-59 59,-100l0 -2758c0,-43 -23,-81 -59,-101l-572 -317zm-90 2812c0,11 -5,20 -14,25l-328 190c-9,4 -20,4 -29,0l-328 -190c-9,-5 -13,-16 -13,-25l0 -380c0,-11 4,-20 13,-24l328 -190c9,-5 20,-5 29,0l328 190c9,4 14,15 14,24l0 380z"/>
    <g>
     <path class="fil0" d="M9943 4368c37,-20 57,-58 57,-99l0 -269c0,-41 -23,-79 -57,-100l-951 -551c-36,-20 -79,-20 -115,0l-959 554c-36,20 -59,58 -59,99l0 1106c0,40 23,79 59,99l952 542c36,21 79,21 113,0l576 -321c18,-9 30,-29 30,-49 0,-21 -12,-41 -30,-50l-963 -554c-18,-11 -29,-29 -29,-49l0 -346c0,-21 11,-41 29,-50l301 -172c18,-11 41,-11 59,0l300 172c18,11 30,29 30,50l0 273c0,21 11,41 29,50 18,11 41,11 59,0l569 -335z"/>
     <path class="fil0" d="M8920 4316c6,-4 15,-4 22,0l183 107c7,4 12,11 12,20l0 212c0,9 -5,16 -12,21l-183 106c-7,5 -16,5 -22,0l-184 -106c-6,-5 -11,-12 -11,-21l0 -214c0,-9 5,-16 11,-21l184 -104z"/>
    </g>
    <g>
     <path id="XMLID_67_" class="fil0" d="M3635 3353c36,-20 79,-20 115,0l949 550c37,20 57,58 57,99l0 1096c0,41 -23,80 -57,100l-949 549c-36,21 -79,21 -115,0l-950 -549c-36,-20 -56,-59 -56,-100l0 -1096c0,-41 22,-79 56,-99l950 -550z"/>
     <g>
      <g>
       <g>
        <path class="fil0" d="M3748 3353c-36,-20 -79,-20 -116,0l-949 550c-36,20 -56,58 -56,99l0 1096c0,41 22,80 56,100l949 549c37,21 80,21 116,0l949 -549c36,-20 57,-59 57,-100l0 -1096c0,-41 -23,-79 -57,-99l-949 -550z"/>
       </g>
       <g>
        <path class="fil0" d="M3632 3353l-951 550c-36,20 -59,58 -59,99l0 1096c0,28 9,52 27,73l1069 -1829c-29,-9 -58,-4 -86,11z"/>
        <path class="fil0" d="M3723 5756c7,-2 16,-4 22,-9l948 -549c36,-20 52,-59 52,-100l0 -1096c0,-27 -9,-54 -25,-74l-997 1828z"/>
        <path class="fil0" d="M4693 3900l-945 -549c-9,-4 -21,-9 -30,-11l-1069 1829c9,11 21,20 32,27l951 549c30,16 61,20 91,9l999 -1829c-7,-9 -16,-18 -29,-25z"/>
       </g>
      </g>
      <g>
       <g>
        <path class="fil0" d="M3748 3353c-36,-20 -79,-20 -116,0l-949 550c-36,20 -56,58 -56,99l0 1096c0,41 22,80 56,100l949 549c37,21 80,21 116,0l949 -549c36,-20 57,-59 57,-100l0 -1096c0,-41 -23,-79 -57,-99l-949 -550z"/>
       </g>
       <g>
        <path class="fil0" d="M2692 3894l-11 6c-36,21 -59,59 -59,100l0 1096c0,41 23,79 59,100l951 549c25,16 55,18 84,11l-1024 -1862z"/>
        <path class="fil0" d="M4747 4000c0,-41 -18,-79 -54,-100l-945 -549c-9,-4 -18,-9 -27,-11l1026 1752 0 -1092z"/>
        <path class="fil0" d="M3745 5745l948 -549c36,-21 52,-59 52,-100l0 -4 -1027 -1752c-29,-9 -61,-5 -88,11l-940 543 1022 1862c13,0 24,-4 33,-11z"/>
       </g>
      </g>
     </g>
    </g>
   </g>
  </g>
 </g>
</svg>
