<?xml version="1.0" encoding="UTF-8"?>
<!DOCTYPE svg PUBLIC "-//W3C//DTD SVG 1.1//EN" "http://www.w3.org/Graphics/SVG/1.1/DTD/svg11.dtd">
<!-- Creator: CorelDRAW X8 -->
<svg xmlns="http://www.w3.org/2000/svg" xml:space="preserve" width="100mm" height="100mm" version="1.1" style="shape-rendering:geometricPrecision; text-rendering:geometricPrecision; image-rendering:optimizeQuality; fill-rule:evenodd; clip-rule:evenodd"
viewBox="0 0 10000 10000"
 xmlns:xlink="http://www.w3.org/1999/xlink">
 <defs>
  <style type="text/css">
   <![CDATA[
    .fil0 {fill:#A9ABAE}
   ]]>
  </style>
 </defs>
 <g id="Capa_x0020_1">
  <metadata id="CorelCorpID_0Corel-Layer"/>
  <path id="Composite_Path_1_" class="fil0" d="M1577 3423c-867,0 -1577,709 -1577,1577 0,868 710,1577 1577,1577 868,0 1578,-709 1578,-1577 0,-868 -702,-1577 -1578,-1577zm3092 2066l23 197c-142,40 -291,63 -441,55 -213,0 -363,-55 -450,-165 -86,-111 -126,-300 -126,-568 0,-268 47,-458 126,-568 87,-110 237,-166 450,-166 142,0 276,16 410,48l-24 197c-118,-8 -252,-16 -386,-16 -118,0 -197,32 -245,111 -47,71 -63,205 -63,402 0,197 24,331 63,402 48,55 126,95 245,95 142,0 276,-8 418,-24l0 0 0 0zm639 -820c181,0 307,39 386,118 79,79 118,221 118,418 0,197 -39,331 -118,410 -79,79 -205,118 -386,118 -182,0 -316,-39 -387,-118 -79,-79 -118,-221 -118,-410 0,-197 39,-331 118,-418 71,-71 205,-118 387,-118l0 0zm0 205c-95,0 -158,23 -190,71 -31,47 -47,134 -47,268 0,134 16,213 47,268 32,47 95,71 190,71 86,0 157,-24 181,-71 32,-47 47,-134 47,-268 0,-134 -15,-221 -47,-268 -32,-48 -87,-71 -181,-71l0 0zm1356 -182l-24 229 -55 0c-71,0 -181,32 -331,87l0 710 -252 0 0 -994 189 0 24 150c141,-118 276,-174 402,-174l47 -8 0 0zm599 -23c182,0 308,39 387,118 79,79 118,221 118,418 0,197 -39,331 -118,410 -79,79 -205,118 -387,118 -181,0 -315,-39 -386,-118 -79,-79 -118,-221 -118,-410 0,-197 39,-331 118,-418 71,-79 197,-118 386,-118l0 0zm0 205c-94,0 -157,23 -189,71 -31,47 -47,134 -47,268 0,134 16,213 47,268 32,47 95,71 189,71 87,0 158,-24 182,-71 31,-47 47,-134 47,-268 0,-134 -16,-221 -47,-268 -32,-48 -95,-71 -182,-71l0 0zm899 -150l16 150c158,-118 308,-174 442,-174 79,-8 150,24 205,71 47,56 79,126 71,205l0 694 -252 0 0 -646c-16,-40 -24,-79 -48,-119 -23,-23 -55,-31 -87,-31 -47,0 -102,8 -141,31 -64,24 -127,63 -174,95l0 718 -252 0 0 -994 220 0 0 0zm978 166l-23 -174c165,-31 331,-47 504,-47 127,0 229,23 292,79 63,47 87,142 87,276l0 702 -205 0 -24 -158c-94,118 -236,189 -394,181 -87,8 -166,-23 -237,-79 -63,-55 -94,-142 -94,-220l0 -111c-8,-71 23,-142 79,-197 63,-55 142,-71 220,-71l395 0 0 -63c8,-40 -8,-87 -40,-118 -47,-24 -94,-32 -142,-32 -102,8 -244,16 -418,32l0 0 0 0zm158 489l0 39c0,87 47,126 134,126 118,-8 229,-47 316,-118l0 -158 -339 0c-32,0 -64,8 -87,32 -16,31 -32,55 -24,79zm-7721 1001c-757,0 -1372,-615 -1372,-1380 0,-765 615,-1372 1372,-1372 757,0 1373,615 1373,1372 0,757 -608,1380 -1373,1380zm955 -1680c-127,48 -237,174 -324,324l0 0c-87,173 -142,370 -126,520 32,40 71,71 118,95 48,23 111,31 166,23 8,-7 8,-7 16,-7 142,-119 213,-316 228,-513 8,-181 -23,-363 -78,-442zm-734 -291c134,141 308,252 458,276 47,-16 86,-48 126,-79 31,-48 63,-95 71,-150 0,-8 -8,-8 -8,-16 -32,-87 -87,-158 -166,-229 -79,-63 -158,-110 -252,-149 -174,-79 -355,-103 -442,-79 8,149 95,299 213,426l0 0zm-55 1206l0 0c-189,-31 -394,-24 -536,40 -32,39 -48,86 -56,142 -7,55 8,110 32,157 8,8 8,8 16,8 157,103 363,103 552,55 181,-47 347,-126 402,-197 -79,-110 -237,-181 -410,-205zm-252 -1341c0,-47 -16,-102 -32,-142 -32,-47 -71,-86 -118,-110l-16 0c-181,8 -355,134 -481,276 -63,71 -118,150 -150,221 -32,71 -55,134 -63,181 126,40 292,0 457,-79l0 0c166,-78 324,-205 403,-347zm-647 576c-47,-16 -103,-23 -150,-8 -55,16 -103,40 -142,79l-8 24c-47,181 16,378 118,544 103,158 229,292 316,323 79,-110 95,-276 71,-457 -32,-197 -103,-387 -205,-505zm1688 -150c-127,48 -237,174 -324,324l0 0c-87,173 -142,370 -126,520 32,40 71,71 118,95 48,23 111,31 166,23 8,-7 8,-7 16,-7 142,-119 213,-316 228,-513 8,-181 -23,-363 -78,-442zm-734 -291c134,141 308,252 458,276 47,-16 86,-48 126,-79 31,-48 63,-95 71,-150 0,-8 -8,-8 -8,-16 -32,-87 -87,-158 -166,-229 -79,-63 -158,-110 -252,-149 -174,-79 -355,-103 -442,-79 8,149 95,299 213,426l0 0zm-55 1206l0 0c-189,-31 -394,-24 -536,40 -32,39 -48,86 -56,142 -7,55 8,110 32,157 8,8 8,8 16,8 157,103 363,103 552,55 181,-47 347,-126 402,-197 -79,-110 -237,-181 -410,-205zm-252 -1341c0,-47 -16,-102 -32,-142 -32,-47 -71,-86 -118,-110l-16 0c-181,8 -355,134 -481,276 -63,71 -118,150 -150,221 -32,71 -55,134 -63,181 126,40 292,0 457,-79l0 0c166,-78 324,-205 403,-347zm-647 576c-47,-16 -103,-23 -150,-8 -55,16 -103,40 -142,79l-8 24c-47,181 16,378 118,544 103,158 229,292 316,323 79,-110 95,-276 71,-457 -32,-197 -103,-387 -205,-505zm899 765l0 0c-189,-31 -394,-24 -536,40 -32,39 -48,86 -56,142 -7,55 8,110 32,157 8,8 8,8 16,8 157,103 363,103 552,55 181,-47 347,-126 402,-197 -79,-110 -237,-181 -410,-205zm-694 -268c-24,-189 -103,-379 -205,-497 -47,-16 -103,-23 -150,-8 -55,16 -103,40 -142,79l0 24c-47,181 16,378 118,544 103,158 229,292 316,323 71,-118 87,-291 63,-465zm410 -1215c-32,-47 -71,-86 -118,-110l-16 0c-181,8 -355,134 -481,276 -63,71 -118,150 -150,221 -32,71 -55,134 -63,181 126,40 292,0 457,-79l0 0c174,-86 332,-212 410,-347 -7,-55 -15,-102 -39,-142zm1073 568c-127,48 -237,174 -324,324l0 0c-87,173 -142,370 -126,520 32,40 71,71 118,95 48,23 111,31 166,23 8,-7 8,-7 16,-7 142,-119 213,-316 228,-513 8,-181 -23,-363 -78,-442zm-87 -252c-32,-87 -87,-158 -166,-229 -79,-63 -158,-110 -252,-150 -174,-78 -355,-102 -442,-78 8,134 87,283 213,410l0 0c134,142 308,252 458,276 47,-16 86,-48 126,-79 31,-48 63,-95 71,-150 0,8 0,8 -8,0z"/>
 </g>
</svg>
