<?xml version="1.0" encoding="UTF-8"?>
<!DOCTYPE svg PUBLIC "-//W3C//DTD SVG 1.1//EN" "http://www.w3.org/Graphics/SVG/1.1/DTD/svg11.dtd">
<!-- Creator: CorelDRAW X8 -->
<svg xmlns="http://www.w3.org/2000/svg" xml:space="preserve" width="100mm" height="100mm" version="1.1" style="shape-rendering:geometricPrecision; text-rendering:geometricPrecision; image-rendering:optimizeQuality; fill-rule:evenodd; clip-rule:evenodd"
viewBox="0 0 10000 10000"
 xmlns:xlink="http://www.w3.org/1999/xlink">
 <defs>
  <style type="text/css">
   <![CDATA[
    .fil0 {fill:#A9ABAE}
   ]]>
  </style>
 </defs>
 <g id="Capa_x0020_1">
  <metadata id="CorelCorpID_0Corel-Layer"/>
  <path class="fil0" d="M3743 5552c0,-45 -9,-73 -9,-109 0,-301 0,-612 0,-913 0,-18 0,-28 0,-46 0,-45 18,-64 64,-64 110,0 219,0 329,0 45,0 91,9 137,9 201,19 429,156 493,375 45,182 27,347 -82,502 -83,128 -210,192 -356,219 -110,18 -229,18 -338,18 -64,19 -146,9 -238,9zm5204 0c0,-45 0,-82 0,-109 0,-301 0,-603 0,-904 0,-18 0,-27 0,-46 0,-55 19,-73 64,-73 110,0 210,0 320,0 46,0 91,9 137,9 201,19 438,146 502,375 55,182 37,356 -73,511 -82,119 -210,192 -356,219 -82,18 -164,18 -256,18 -100,0 -210,0 -338,0zm-1643 19c-301,18 -584,-265 -575,-576 9,-301 256,-575 584,-575 301,0 575,256 575,575 0,375 -328,603 -584,576zm-1652 -448c-156,0 -302,0 -448,0 0,64 0,119 0,183 28,0 55,9 82,9 119,0 238,0 366,0 82,0 82,9 91,82 0,46 0,101 0,155 -274,0 -539,0 -804,0 -18,-82 -18,-1013 0,-1104 28,0 55,-10 83,-10 200,0 410,0 611,0 92,0 101,10 101,101 0,36 0,64 0,100 0,9 -9,19 -9,37 -165,9 -329,0 -503,0 0,64 0,109 0,192 146,0 293,0 439,0 9,82 0,164 -9,255zm940 -219c0,82 0,146 0,228 -146,19 -283,0 -438,10 0,136 0,264 0,392 -101,18 -192,9 -274,9 -28,-73 -37,-949 -9,-1114 18,0 45,-9 73,-9 219,0 447,0 675,0 82,0 92,9 92,82 0,192 18,174 -174,174 -91,0 -173,0 -255,0 -28,0 -64,0 -101,0 0,73 0,137 0,219 128,9 256,9 411,9zm1452 621c0,-37 0,-64 0,-91 0,-292 0,-594 0,-886 0,-18 0,-46 0,-64 0,-27 18,-45 45,-45 64,0 119,0 183,0 27,0 46,18 46,54 0,19 0,46 0,64 0,210 0,420 0,630 0,37 0,64 0,110 82,27 155,9 228,9 73,0 155,0 237,0 18,82 18,155 0,228 -64,9 -639,9 -739,-9zm-7542 -1114c0,-192 0,-374 0,-566 174,-100 347,-201 521,-301 164,91 328,191 493,283 164,-92 328,-192 493,-283 173,100 347,201 520,301 0,192 0,384 0,566 164,101 329,192 502,292 0,201 0,393 0,594 -164,100 -328,191 -502,292 0,182 0,374 0,566 -173,100 -347,201 -520,301 -165,-91 -329,-191 -493,-283 -165,92 -329,192 -493,283 -174,-100 -347,-201 -521,-301 0,-192 0,-383 0,-566 -164,-101 -329,-192 -502,-292 0,-201 0,-393 0,-594 173,-100 338,-191 502,-292zm502 840c-9,-9 -9,-9 -9,-9 0,-174 0,-356 0,-539 9,-9 28,-36 46,-36 73,-28 137,-82 201,-119 45,-27 91,-55 128,-82 36,-18 82,-46 118,-64 0,-173 0,-338 0,-511 -164,100 -328,191 -502,292 0,-73 0,-137 0,-201 0,-64 0,-128 0,-192 0,-64 0,-118 0,-182 -18,9 -27,18 -36,27 -37,27 -83,46 -119,73 -73,46 -155,91 -238,137 -27,18 -36,27 -36,55 0,173 0,356 0,529 -164,92 -329,192 -502,293 0,164 0,328 0,493 0,0 0,0 0,9 0,0 0,0 9,0 164,-92 319,-183 493,-283 0,45 0,82 0,118 0,37 0,83 0,119 0,37 0,73 0,110 0,36 0,82 0,118 0,37 0,73 0,110 155,-82 301,-164 447,-265zm539 -840c37,18 82,37 110,64 27,18 63,37 100,55 64,36 128,82 201,118 36,19 64,37 91,74 0,173 -9,346 -9,520 0,0 0,0 0,0 0,0 0,0 0,9 146,91 292,174 447,265 0,-192 0,-374 0,-575 64,36 110,73 165,100 55,27 109,64 164,91 55,28 110,64 174,92 0,-174 0,-347 0,-512 -165,-100 -329,-191 -503,-292 0,-191 0,-374 0,-566 -146,-82 -283,-164 -438,-246 0,182 0,374 0,557 0,0 0,0 0,9 0,0 0,0 -9,9 -164,-91 -320,-183 -484,-283 -9,173 -9,347 -9,511zm-502 338c0,18 0,27 0,46 0,137 0,283 0,420 0,36 9,63 45,73 10,0 19,18 28,27 46,27 91,46 137,73 45,27 91,46 137,82 27,18 64,37 91,55 0,-173 0,-338 0,-511 -46,-46 -100,-55 -146,-92 -46,-36 -100,-54 -146,-82 -37,-27 -91,-55 -146,-91zm502 776c46,-27 91,-55 128,-82 82,-46 164,-91 237,-128 18,-9 37,-18 46,-27 18,-19 27,-37 27,-64 0,-128 0,-256 0,-384 0,-27 0,-45 0,-73 -9,0 -18,0 -18,0 -146,82 -283,165 -429,247 9,164 9,338 9,511zm-82 -1671c-137,-82 -274,-155 -420,-237 0,164 0,319 0,484 64,-37 119,-64 173,-92 82,-54 165,-100 247,-155zm100 0c64,37 119,64 174,91 64,37 137,83 201,119 9,9 27,9 45,18 0,-164 0,-319 0,-474 -137,91 -274,164 -420,246zm-1004 2237c137,-82 274,-155 411,-237 -137,-83 -274,-156 -411,-238 0,155 0,311 0,475zm1917 0c0,-155 0,-320 0,-475 -137,82 -274,155 -411,238 137,73 274,155 411,237zm4830 -749c82,-45 164,-91 247,-137 36,-18 54,-45 54,-91 0,-82 0,-155 0,-237 0,-37 -9,-64 -36,-82 -73,-37 -137,-83 -210,-119 -28,-18 -55,-18 -91,0 -64,36 -128,82 -192,109 -37,19 -46,46 -46,83 0,73 0,155 0,228 0,55 18,82 73,109 55,46 128,92 201,137zm1927 -45c63,0 127,9 182,0 110,-19 210,-64 256,-174 45,-118 45,-237 -37,-338 -73,-91 -255,-137 -401,-82 0,192 0,393 0,594zm-5195 -612c0,210 0,402 0,603 82,9 164,9 246,-10 137,-36 210,-136 219,-273 9,-137 -64,-274 -192,-311 -100,-18 -182,-9 -273,-9z"/>
 </g>
</svg>
