<?xml version="1.0" encoding="UTF-8"?>
<!DOCTYPE svg PUBLIC "-//W3C//DTD SVG 1.1//EN" "http://www.w3.org/Graphics/SVG/1.1/DTD/svg11.dtd">
<!-- Creator: CorelDRAW X8 -->
<svg xmlns="http://www.w3.org/2000/svg" xml:space="preserve" width="100mm" height="100mm" version="1.1" style="shape-rendering:geometricPrecision; text-rendering:geometricPrecision; image-rendering:optimizeQuality; fill-rule:evenodd; clip-rule:evenodd"
viewBox="0 0 10000 10000"
 xmlns:xlink="http://www.w3.org/1999/xlink">
 <defs>
  <style type="text/css">
   <![CDATA[
    .fil0 {fill:#A9ABAE}
   ]]>
  </style>
 </defs>
 <g id="Capa_x0020_1">
  <metadata id="CorelCorpID_0Corel-Layer"/>
  <path class="fil0" d="M5584 4283l-349 0 0 806c0,208 -85,373 -335,373 -248,2 -320,-168 -320,-383l0 -796 -349 0 0 883c0,256 90,620 570,623 264,3 394,-125 456,-239l0 194 327 0 0 -1461zm-3268 717l638 -1099 308 1099 -308 1099 -638 -1099zm-310 179l637 1098 -1110 -284 -802 -814 1275 0 0 0zm637 -1456l-637 1099 -1275 0 802 -815 1110 -284 0 0zm910 903l-389 -1444 -1451 387 -215 377 -436 -3 -1062 1057 1062 1057 0 0 436 -3 215 377 1451 387 389 -1444 -221 -374 221 -374zm5304 1629l373 0 770 -1972 -373 0 -352 971 -357 -971 -373 0 551 1405 -239 567zm-937 -511l349 0 0 -1192 250 0 -103 -269 -147 0 0 -508 -349 0 0 508 -243 0 0 269 243 0 0 1192zm-715 0l349 0 0 -1461 -349 0 0 1461zm0 -1658l349 0 0 -311 -349 0 0 311zm-1482 1658l349 0 0 -806c0,-205 86,-370 334,-373 245,0 317,168 317,386l0 793 349 0 0 -881c0,-258 -91,-623 -568,-625 -261,-3 -392,125 -456,239 3,-69 3,-130 3,-194l-328 0 0 1461z"/>
 </g>
</svg>
