<?xml version="1.0" encoding="UTF-8"?>
<!DOCTYPE svg PUBLIC "-//W3C//DTD SVG 1.1//EN" "http://www.w3.org/Graphics/SVG/1.1/DTD/svg11.dtd">
<!-- Creator: CorelDRAW X8 -->
<svg xmlns="http://www.w3.org/2000/svg" xml:space="preserve" width="100mm" height="100mm" version="1.1" style="shape-rendering:geometricPrecision; text-rendering:geometricPrecision; image-rendering:optimizeQuality; fill-rule:evenodd; clip-rule:evenodd"
viewBox="0 0 10000 10000"
 xmlns:xlink="http://www.w3.org/1999/xlink">
 <defs>
  <style type="text/css">
   <![CDATA[
    .fil0 {fill:#A9ABAE}
   ]]>
  </style>
 </defs>
 <g id="Capa_x0020_1">
  <metadata id="CorelCorpID_0Corel-Layer"/>
  <path class="fil0" d="M6048 5621c0,-97 0,-200 0,-304 42,0 76,0 124,0 0,145 0,290 0,435 -117,41 -206,14 -275,-97 -42,-76 -104,-131 -173,-227 0,131 0,227 0,331 -48,7 -76,7 -124,13 0,-144 0,-296 0,-448 117,-34 207,-14 276,110 41,76 96,138 152,207 0,-13 13,-13 20,-20zm-4496 -1118c48,7 89,14 138,21 131,-131 296,-227 503,-276 -62,83 -117,159 -172,235 -42,55 -62,117 -62,186 7,221 7,441 7,662 0,69 41,103 103,76 62,-28 117,-69 179,-104 21,-13 35,-27 55,-41 -103,207 -248,379 -455,510 -62,-55 -124,-103 -186,-151 -55,62 -110,117 -165,172 -21,14 -42,35 -63,35 -206,-28 -400,-90 -551,-242 -14,-14 -21,-20 -28,-34 111,-28 117,-35 117,-145 0,-179 0,-359 0,-538 0,-117 -62,-159 -158,-90 -83,62 -152,138 -221,214 -55,62 -96,145 -159,214 7,-55 7,-117 28,-173 145,-420 455,-675 841,-848 7,7 7,7 14,21 -27,27 -55,55 -76,83 -41,55 -62,117 -48,186 14,76 28,90 110,96 0,256 7,504 -6,759 -7,124 96,186 206,124 76,-41 125,-83 118,-186 -14,-159 -7,-310 -7,-469 14,-166 14,-166 -62,-297zm-118 1945c-386,0 -744,-151 -1013,-427 -269,-276 -421,-655 -421,-1042 14,-786 655,-1427 1441,-1427l7 0c380,0 738,158 1007,434 269,276 421,642 414,1028 -7,793 -648,1434 -1435,1434l0 0zm0 -2703c-317,0 -634,131 -868,365 -242,242 -373,559 -373,897 0,690 559,1248 1241,1248 773,-7 1249,-662 1249,-1262 -7,-676 -580,-1248 -1249,-1248zm7959 1117c186,0 400,0 593,0 0,62 7,117 14,179 -276,0 -538,0 -821,0 0,-275 0,-524 0,-786 62,0 131,0 214,0 0,200 0,400 0,607zm-1483 179c138,-262 269,-510 407,-751 49,-76 297,-69 345,13 131,242 262,483 400,738 -131,7 -255,49 -317,-110 -7,-21 -62,-28 -97,-28 -96,0 -193,0 -289,0 -83,0 -145,14 -193,97 -42,97 -145,34 -256,41zm407 -303c124,0 221,0 338,0 -55,-117 -110,-214 -172,-338 -62,124 -111,221 -166,338zm-4117 -510c90,0 241,0 241,0 0,0 7,406 0,586 -7,145 -75,220 -213,227 -187,7 -373,7 -559,0 -145,-7 -221,-82 -221,-234 -7,-179 0,-366 0,-552l214 0c0,0 0,242 0,379 0,249 35,256 310,256 14,0 28,0 42,0 165,-14 186,-42 186,-221 0,-145 0,-290 0,-441zm3669 813c-303,0 -593,0 -890,0 0,-269 0,-524 0,-786 269,0 531,0 807,0 0,48 0,90 7,152 -200,0 -372,0 -586,0 0,55 -7,96 -7,152 207,0 400,0 593,0 0,55 0,89 7,151 -186,0 -379,0 -579,0 -7,56 -7,97 -14,152 221,0 448,0 669,0 -7,69 -7,117 -7,179zm-1800 -213c0,75 0,179 0,179l-214 0 0 -752c269,0 531,0 800,0 83,0 131,69 138,152 7,124 28,241 -124,317 172,55 103,193 124,310l-207 0c-7,-34 -7,-75 -20,-110 -14,-62 -49,-96 -118,-96 -110,0 -234,0 -379,0zm0 -180c138,0 269,0 386,0 76,0 104,-48 104,-117 0,-62 -28,-117 -90,-117 -131,-7 -269,0 -407,0 7,83 7,145 7,234zm-648 -393c89,0 151,0 234,0 0,262 0,524 0,793 -103,0 -200,7 -296,0 -42,-7 -83,-48 -111,-82 -131,-166 -255,-332 -407,-525 0,221 0,414 0,607 -75,0 -138,0 -213,0 0,-255 0,-510 0,-793 96,0 193,-7 289,0 42,7 83,48 111,83 131,159 248,324 393,517 0,-221 0,-407 0,-600zm1565 1055c42,0 76,0 124,0 0,152 0,297 0,456 -41,0 -76,0 -124,0 0,-152 0,-297 0,-456zm-1869 366c117,0 228,0 345,0 7,14 14,21 21,34 -21,21 -42,56 -55,56 -138,6 -283,0 -428,0 0,-152 0,-290 0,-456 172,0 345,0 552,0 -49,49 -69,83 -90,90 -83,7 -165,0 -248,7 -35,0 -62,27 -90,41 0,14 7,28 14,42 117,0 193,0 296,0 7,7 14,20 21,27 -21,21 -34,62 -48,62 -76,7 -145,0 -221,7 -27,0 -55,28 -76,42 -7,20 0,34 7,48zm3297 -124c-117,76 -248,-7 -345,76 0,20 0,34 7,48 124,0 241,0 365,0 7,14 7,27 14,41 -21,21 -41,55 -62,55 -145,7 -290,0 -441,0 0,-151 0,-289 0,-441 151,0 303,0 448,0 7,0 21,28 34,48 -117,76 -268,-27 -379,90 124,62 262,-14 359,83zm-1559 -83c-48,-14 -96,-28 -131,-35 -69,-13 -138,-27 -207,-27 -96,0 -110,69 -103,145 0,82 41,124 124,117 69,-7 145,34 207,-35 -35,-89 -152,14 -179,-103 96,0 193,0 282,0 49,186 14,234 -172,248 -69,0 -145,0 -214,-7 -124,-13 -145,-41 -165,-151 -28,-235 27,-304 269,-304 68,0 131,0 193,14 62,-7 103,35 96,138zm373 283c0,-145 0,-276 0,-407 165,-48 172,-42 269,76 55,69 110,138 186,207 0,-97 0,-194 0,-283 76,-35 124,-28 124,55 0,103 0,228 0,338 -173,48 -179,41 -276,-83 -48,-62 -103,-131 -186,-193 0,76 0,145 0,221 -14,69 -14,69 -117,69z"/>
 </g>
</svg>
