<?xml version="1.0" encoding="utf-8"?>
<!-- Generator: Adobe Illustrator 21.0.0, SVG Export Plug-In . SVG Version: 6.00 Build 0)  -->
<svg version="1.1" xmlns="http://www.w3.org/2000/svg" xmlns:xlink="http://www.w3.org/1999/xlink" x="0px" y="0px"
	 viewBox="0 0 205 422" style="enable-background:new 0 0 205 422;" xml:space="preserve">
<style type="text/css">
	.st0{fill:#69B9E8;}
	.st1{fill:#E3801E;}
</style>
<g id="Screen">
	<g id="Capa_14">
		<path class="st0" d="M192.9,10.1v393.2L11.6,367.2V46.3L192.9,10.1 M195.5,7L9,44.2v325.1l186.5,37.2V7L195.5,7z"/>
	</g>
</g>
<g id="navbar">
	<path class="st0" d="M191.9,11.9V52L12.6,76.3V43.8L191.9,11.9 M194.5,8.7L10,41.6v37.7l184.5-25V8.7L194.5,8.7z"/>
</g>
<g id="post-img">
	<path class="st0" d="M191.3,74.2v134.3l-178.4-2.1V95.6L191.3,74.2 M193.9,71.3l-183.6,22v115.7l183.6,2.1V71.3L193.9,71.3z"/>
</g>
<g id="post_title">
	<path class="st0" d="M51.9,249.2l121.6,6.3v26.1l-121.6-10V249.2 M49.3,246.5v27.6L176,284.5v-31.4L49.3,246.5L49.3,246.5z"/>
</g>
<g id="text_line_1">
	<path class="st0" d="M22.7,291.2l150.6,15.2v12.7L22.7,301.4V291.2 M20.1,288.3v15.3L175.9,322v-18L20.1,288.3L20.1,288.3z"/>
</g>
<g id="text_line_2">
	<path class="st0" d="M22.7,318.5l150.6,19.8v12.7L22.7,328.6V318.5 M20.1,315.5v15.3l155.8,23.1v-18L20.1,315.5L20.1,315.5z"/>
</g>
<g id="text_line_3">
	<path class="st0" d="M22.7,345.3l150.6,24.3v12.7L22.7,355.4V345.3 M20.1,342.2v15.3l155.8,27.8v-18L20.1,342.2L20.1,342.2z"/>
</g>
<g id="post_avatar">
	<path class="st0" d="M31,248.1c0.1,0,0.2,0,0.4,0c2.3,0.1,4.6,1.4,6.3,3.5c1.8,2.3,2.8,5.2,2.8,8.2c0,5.7-3.6,10.2-8.2,10.2
		c-0.2,0-0.4,0-0.6,0c-2.3-0.2-4.5-1.5-6.2-3.6c-1.8-2.2-2.7-5.1-2.7-8.1C22.7,252.6,26.4,248.1,31,248.1 M31,245.5
		c-6,0-10.8,5.6-10.8,12.8c0,7.4,5,13.8,11.3,14.3c0.3,0,0.5,0,0.8,0c6,0,10.8-5.5,10.8-12.8c0-7.6-5.2-14-11.6-14.3
		C31.3,245.6,31.1,245.5,31,245.5L31,245.5z"/>
</g>
<g id="slider_circle_1">
	<path class="st0" d="M53.8,194.1c0-1.9-1.4-3.5-3-3.5c-1.6,0-2.9,1.6-2.9,3.5c0,1.9,1.4,3.5,3,3.5C52.5,197.6,53.8,196,53.8,194.1z
		"/>
</g>
<g id="slider_circle_2">
	<path class="st1" d="M80.1,194.1c0-2-1.5-3.6-3.2-3.6c-1.7,0-3.1,1.6-3,3.6c0,2,1.5,3.6,3.2,3.6C78.8,197.7,80.2,196.1,80.1,194.1z
		"/>
</g>
<g id="slider_circle_3">
	<path class="st0" d="M110.2,194.1c0-2.1-1.6-3.7-3.4-3.7c-1.8,0-3.3,1.7-3.2,3.7c0,2,1.6,3.7,3.4,3.7
		C108.8,197.8,110.2,196.1,110.2,194.1z"/>
</g>
<g id="slider_circle_4">
	<path class="st0" d="M140.1,194c-0.1-2.1-1.7-3.9-3.7-3.9c-1.9,0-3.5,1.7-3.4,3.9c0.1,2.1,1.7,3.8,3.6,3.9
		C138.6,197.9,140.1,196.2,140.1,194z"/>
</g>
<g id="heart_inactive">
</g>
<g id="comment">
</g>
<g id="share">
</g>
<g id="hearth_active">
</g>
</svg>
