<?xml version="1.0" encoding="utf-8"?>
<!-- Generator: Adobe Illustrator 21.0.0, SVG Export Plug-In . SVG Version: 6.00 Build 0)  -->
<svg version="1.1" xmlns="http://www.w3.org/2000/svg" xmlns:xlink="http://www.w3.org/1999/xlink" x="0px" y="0px"
	 viewBox="0 0 355 221" style="enable-background:new 0 0 355 221;" xml:space="preserve">
<style type="text/css">
	.st0{fill:#62ACED;}
	.st1{fill:#EAAD5D;}
	.st2{fill:#69B9E8;}
</style>
<g id="Main_screen">
	<g id="Capa_15">
		<g id="Rectángulo_1_2_">
			<g>
				<path class="st0" d="M335.5,16.8v186.6H17.8V16.8H335.5 M338.3,14H15v192.2h323.3V14L338.3,14z"/>
			</g>
		</g>
	</g>
</g>
<g id="img-box">
	<g id="Rectángulo_1_copia_5_1_">
		<g>
			<path class="st0" d="M300.6,63.8v98.6H195.9V63.8H300.6 M303.3,61H193.2v104.1h110.2V61L303.3,61z"/>
		</g>
	</g>
</g>
<g id="logo_box">
	<g id="Rectángulo_1_copia_2_1_">
		<g>
			<rect x="43.2" y="26.6" class="st1" width="28.4" height="9"/>
		</g>
	</g>
</g>
<g id="Line_1">
	<g id="Rectángulo_1_copia_6_1_">
		<g>
			<path class="st0" d="M117.7,59.3v3.5H46v-3.5H117.7 M120.5,56.6H43.2v9h77.3V56.6L120.5,56.6z"/>
		</g>
	</g>
</g>
<g id="Line_2">
	<g id="Rectángulo_1_copia_7_1_">
		<g>
			<path class="st0" d="M117.7,76.3v3.5H46v-3.5H117.7 M120.5,73.5H43.2v9h77.3V73.5L120.5,73.5z"/>
		</g>
	</g>
</g>
<g id="Line_3">
	<g id="Rectángulo_1_copia_8_1_">
		<g>
			<path class="st0" d="M181.4,106.9v3.5H46v-3.5H181.4 M184.2,104.1h-141v9h141V104.1L184.2,104.1z"/>
		</g>
	</g>
</g>
<g id="Line_4">
	<g id="Rectángulo_1_copia_9_1_">
		<g>
			<path class="st0" d="M181.4,123.8v3.5H46v-3.5H181.4 M184.2,121.1h-141v9h141V121.1L184.2,121.1z"/>
		</g>
	</g>
</g>
<g id="Line_5">
	<g id="Rectángulo_1_copia_10_1_">
		<g>
			<path class="st0" d="M181.4,140.6v3.5H46v-3.5H181.4 M184.2,137.8h-141v9h141V137.8L184.2,137.8z"/>
		</g>
	</g>
</g>
<g id="Line_6">
	<g id="Rectángulo_1_copia_11_1_">
		<g>
			<path class="st0" d="M181.4,159v3.5H46V159H181.4 M184.2,156.2h-141v9h141V156.2L184.2,156.2z"/>
		</g>
	</g>
</g>
<g id="link1">
	<g id="Rectángulo_1_copia_3_1_">
		<g>
			<path class="st0" d="M218.6,29.4v3.5h-22.8v-3.5H218.6 M221.4,26.6H193v9h28.4V26.6L221.4,26.6z"/>
		</g>
	</g>
</g>
<g id="link2">
	<g id="Rectángulo_1_copia_4_3_">
		<g>
			<path class="st0" d="M261.3,29.4v3.5h-22.8v-3.5H261.3 M264.1,26.6h-28.4v9h28.4V26.6L264.1,26.6z"/>
		</g>
	</g>
</g>
<g id="link3">
	<g id="Rectángulo_1_copia_4_2_">
		<g>
			<path class="st0" d="M303.7,29.4v3.5h-22.8v-3.5H303.7 M306.5,26.6h-28.4v9h28.4V26.6L306.5,26.6z"/>
		</g>
	</g>
</g>
<g id="scroll_bar">
	<g id="Rectángulo_1_copia_12_1_">
		<g>
			<path class="st0" d="M335.5,16.8v186.6h-3.5V16.8H335.5 M338.3,14h-9v192.2h9V14L338.3,14z"/>
		</g>
	</g>
</g>
<g id="scroll_level">
	<g id="Rectángulo_1_copia_13_1_">
		<g>
			<path class="st2" d="M335.5,29.4v15.2h-3.5V29.4H335.5 M338.3,26.6h-9v20.8h9V26.6L338.3,26.6z"/>
		</g>
	</g>
</g>
</svg>
