<?xml version="1.0" encoding="UTF-8"?>
<!DOCTYPE svg PUBLIC "-//W3C//DTD SVG 1.1//EN" "http://www.w3.org/Graphics/SVG/1.1/DTD/svg11.dtd">
<!-- Creator: CorelDRAW X8 -->
<svg xmlns="http://www.w3.org/2000/svg" xml:space="preserve" width="15.0706mm" height="25.3998mm" version="1.1" style="shape-rendering:geometricPrecision; text-rendering:geometricPrecision; image-rendering:optimizeQuality; fill-rule:evenodd; clip-rule:evenodd"
viewBox="0 0 1507 2540"
 xmlns:xlink="http://www.w3.org/1999/xlink">
 <defs>
  <style type="text/css">
   <![CDATA[
    .fil0 {fill:#69B9E8}
    .fil1 {fill:#E3801E}
   ]]>
  </style>
 </defs>
 <g id="Capa_x0020_1">
  <metadata id="CorelCorpID_0Corel-Layer"/>
  <g id="_2153926591392">
   <g id="Screen">
    <g id="Capa_14">
     <g>
      <path class="fil0" d="M1329 21l0 2498 -1151 -230 0 -2038 1151 -230 0 0zm17 -20l-1185 236 0 2066 1185 236 0 -2538 0 0z"/>
     </g>
    </g>
   </g>
   <g id="navbar">
    <g>
     <path class="fil0" d="M1323 32l0 255 -1139 154 0 -206 1139 -203 0 0zm17 -20l-1173 209 0 239 1173 -159 0 -289 0 0z"/>
    </g>
   </g>
   <g id="post-img">
    <g>
     <path class="fil0" d="M1319 428l0 853 -1133 -13 0 -704 1133 -136 0 0zm17 -19l-1167 140 0 735 1167 14 0 -889 0 0z"/>
    </g>
   </g>
   <g id="post_title">
    <g>
     <path class="fil0" d="M434 1540l772 40 0 166 -772 -64 0 -142 0 0zm-17 -17l0 175 805 66 0 -200 -805 -41 0 0z"/>
    </g>
   </g>
   <g id="text_line_1">
    <g>
     <path class="fil0" d="M248 1807l957 96 0 81 -957 -113 0 -64 0 0zm-16 -19l0 97 989 117 0 -114 -989 -100 0 0z"/>
    </g>
   </g>
   <g id="text_line_2">
    <g>
     <path class="fil0" d="M248 1980l957 126 0 80 -957 -142 0 -64 0 0zm-16 -19l0 97 989 147 0 -114 -989 -130 0 0z"/>
    </g>
   </g>
   <g id="text_line_3">
    <g>
     <path class="fil0" d="M248 2150l957 155 0 80 -957 -171 0 -64 0 0zm-16 -19l0 97 989 176 0 -114 -989 -159 0 0z"/>
    </g>
   </g>
   <g id="post_avatar">
    <g>
     <path class="fil0" d="M301 1533c1,0 1,0 2,0 15,0 30,9 40,22 12,15 18,33 18,52 0,36 -23,65 -52,65 -1,0 -2,0 -4,0 -14,-1 -28,-10 -39,-23 -12,-14 -17,-32 -17,-51 -1,-37 23,-65 52,-65l0 0zm0 -17c-38,0 -69,36 -69,82 0,47 32,87 72,90 2,0 3,0 5,0 38,0 69,-35 69,-81 0,-48 -33,-89 -74,-91 -1,1 -2,0 -3,0l0 0z"/>
    </g>
   </g>
   <g id="slider_circle_1">
    <path class="fil0" d="M446 1190c0,-12 -9,-23 -19,-23 -11,0 -19,11 -19,23 0,12 9,22 19,22 10,0 19,-10 19,-22z"/>
   </g>
   <g id="slider_circle_2">
    <path class="fil1" d="M613 1190c0,-13 -10,-23 -21,-23 -10,0 -19,10 -19,23 0,12 10,22 21,22 11,0 19,-10 19,-22z"/>
   </g>
   <g id="slider_circle_3">
    <path class="fil0" d="M804 1190c0,-14 -10,-24 -22,-24 -11,0 -21,11 -20,24 0,12 10,23 22,23 11,0 20,-11 20,-23z"/>
   </g>
   <g id="slider_circle_4">
    <path class="fil0" d="M994 1189c-1,-13 -11,-25 -24,-25 -12,0 -22,11 -21,25 1,13 11,24 23,25 12,0 22,-11 22,-25z"/>
   </g>
   <g id="heart_inactive">
   </g>
   <g id="comment">
   </g>
   <g id="share">
   </g>
   <g id="hearth_active">
   </g>
  </g>
 </g>
</svg>
