<?xml version="1.0" encoding="UTF-8"?>
<!DOCTYPE svg PUBLIC "-//W3C//DTD SVG 1.1//EN" "http://www.w3.org/Graphics/SVG/1.1/DTD/svg11.dtd">
<!-- Creator: CorelDRAW X8 -->
<svg xmlns="http://www.w3.org/2000/svg" xml:space="preserve" width="100mm" height="100mm" version="1.1" style="shape-rendering:geometricPrecision; text-rendering:geometricPrecision; image-rendering:optimizeQuality; fill-rule:evenodd; clip-rule:evenodd"
viewBox="0 0 10000 10000"
 xmlns:xlink="http://www.w3.org/1999/xlink">
 <defs>
  <style type="text/css">
   <![CDATA[
    .fil0 {fill:#FEFEFE}
   ]]>
  </style>
 </defs>
 <g id="Capa_x0020_1">
  <metadata id="CorelCorpID_0Corel-Layer"/>
  <path class="fil0" d="M10000 1897c-367,161 -762,272 -1179,322 423,-256 751,-656 901,-1134 -395,233 -834,406 -1302,500 -372,-400 -906,-651 -1496,-651 -1134,0 -2052,918 -2052,2053 0,161 17,317 56,467 -1708,-84 -3221,-901 -4233,-2141 -178,300 -278,656 -278,1034 0,712 362,1340 912,1708 -333,-12 -650,-101 -929,-256 0,11 0,16 0,27 0,996 707,1825 1647,2014 -173,44 -356,72 -540,72 -133,0 -261,-11 -384,-39 262,818 1018,1407 1919,1424 -706,545 -1590,873 -2553,873 -166,0 -328,-11 -489,-28 907,584 1986,924 3148,924 3776,0 5840,-3126 5840,-5840 0,-89 0,-178 -6,-267 395,-289 745,-651 1018,-1062l0 0z"/>
 </g>
</svg>
