<?xml version="1.0" encoding="UTF-8"?>
<!DOCTYPE svg PUBLIC "-//W3C//DTD SVG 1.1//EN" "http://www.w3.org/Graphics/SVG/1.1/DTD/svg11.dtd">
<!-- Creator: CorelDRAW X8 -->
<svg xmlns="http://www.w3.org/2000/svg" xml:space="preserve" width="100mm" height="100mm" version="1.1" style="shape-rendering:geometricPrecision; text-rendering:geometricPrecision; image-rendering:optimizeQuality; fill-rule:evenodd; clip-rule:evenodd"
viewBox="0 0 10000 10000"
 xmlns:xlink="http://www.w3.org/1999/xlink">
 <defs>
  <style type="text/css">
   <![CDATA[
    .fil0 {fill:#FEFEFE}
   ]]>
  </style>
 </defs>
 <g id="Capa_x0020_1">
  <metadata id="CorelCorpID_0Corel-Layer"/>
  <path class="fil0" d="M10000 2523l0 4954c0,1389 -1134,2523 -2523,2523l-4954 0c-1389,0 -2523,-1134 -2523,-2523l0 -4954c0,-1389 1134,-2523 2523,-2523l4954 0c1395,0 2523,1128 2523,2523zm-5000 -98c1421,0 2575,1154 2575,2575 0,1421 -1154,2575 -2575,2575 -1421,0 -2575,-1154 -2575,-2575 0,-1421 1154,-2575 2575,-2575zm1486 2575c0,-821 -665,-1486 -1486,-1486 -821,0 -1486,671 -1486,1486 0,815 671,1486 1486,1486 821,0 1486,-665 1486,-1486zm1174 -3259c332,0 612,273 612,606 0,332 -273,613 -612,613 -339,0 -613,-274 -613,-613 0,-339 274,-606 613,-606zm1251 5736l0 -4954c0,-789 -645,-1434 -1434,-1434l-4954 0c-789,0 -1434,645 -1434,1434l0 4954c0,789 645,1434 1434,1434l4954 0c795,0 1434,-639 1434,-1434z"/>
 </g>
</svg>
