<?xml version="1.0" encoding="utf-8"?>
<!-- Generator: Adobe Illustrator 21.0.0, SVG Export Plug-In . SVG Version: 6.00 Build 0)  -->
<svg version="1.1" id="Layer_1" xmlns="http://www.w3.org/2000/svg" xmlns:xlink="http://www.w3.org/1999/xlink" x="0px" y="0px"
	 viewBox="0 0 566.2 566.2" style="enable-background:new 0 0 566.2 566.2;" xml:space="preserve">
<style type="text/css">
	.st0{fill:#999999;}
	.st1{fill:#03AFF5;}
</style>
<g>
	<path class="st0" d="M383.1,420.9c-1.5,3.5-5.5,5-8.9,3.6l-22.5-9.7c-4-1.8-8.6-0.4-11,3.1c-10.4,15.1-23.6,27.9-39.1,37.9
		c-3.6,2.3-5.1,6.9-3.5,10.9l9,22.7c1.3,3.4-0.3,7.4-3.8,8.7l-24.8,9.9c-3.4,1.3-7.4-0.3-8.7-3.8l-9.1-22.7c-1.6-4-5.8-6.4-10-5.6
		c-18.1,3.3-36.3,3.1-54.4-0.8c-4.2-0.9-8.5,1.3-10.2,5.2l-9.7,22.5c-1.5,3.4-5.5,5-8.9,3.6l-24.4-10.6c-1.7-0.7-3-2-3.6-3.8
		c-0.7-1.7-0.6-3.5,0.1-5.2l9.7-22.5c1.8-4,0.4-8.6-3.1-11c-15.1-10.4-27.9-23.6-37.9-39.1c-2.3-3.6-6.9-5.1-10.9-3.5l-22.7,9.1
		c-3.5,1.3-7.4-0.3-8.7-3.8L56,391.4c-1.3-3.4,0.3-7.4,3.8-8.7l22.7-9.1c4-1.6,6.4-5.8,5.6-10c-3.3-18.1-3.1-36.3,0.8-54.4
		c0.9-4.2-1.3-8.5-5.2-10.2l-22.5-9.7c-1.7-0.7-3-2-3.6-3.8c-0.7-1.7-0.6-3.5,0.1-5.2l10.6-24.4c0.7-1.7,2-3,3.8-3.6
		s3.5-0.6,5.2,0.1l22.5,9.7c4,1.8,8.6,0.4,11-3.1c10.4-15.1,23.6-27.9,39.1-37.9c3.6-2.3,5.1-6.9,3.5-10.9l-9.1-22.7
		c-0.7-1.7-0.6-3.5,0.1-5.2c0.7-1.7,2-3,3.8-3.6l24.7-9.8c3.4-1.3,7.4,0.3,8.7,3.8l9.1,22.7c1.8,4.6,7.1,6.9,11.7,5.1
		c4.6-1.8,6.9-7.1,5.1-11.7l-9.1-22.7c-5.1-12.8-19.5-19-32.3-14l-24.7,9.8c-6.1,2.4-11,7.1-13.7,13.3c-2.6,6.1-2.7,12.9-0.3,19.1
		l6.4,16c-12.7,9.1-24,20-33.6,32.6l-15.8-6.8c-6.1-2.6-12.9-2.7-19.1-0.3c-6.1,2.4-11,7.1-13.7,13.3l-10.6,24.4
		c-2.6,6.1-2.7,12.9-0.3,19.1c2.4,6.1,7.1,11,13.3,13.7l15.8,6.8C67,328.4,66.8,344,69,359.7L53,366c-12.8,5.1-19,19.5-14,32.3
		l9.8,24.4c5,12.8,19.5,19,32.3,14l16-6.4c9.1,12.7,20,24,32.6,33.6l-6.8,15.8c-2.6,6.1-2.7,12.9-0.3,19.1c2.4,6.1,7.1,11,13.3,13.7
		l24.4,10.6c12.6,5.4,27.3-0.4,32.7-13l6.8-15.8c15.6,2.6,31.2,2.9,46.8,0.7l6.4,16c3.9,9.7,13.1,15.6,22.8,15.7
		c3.2,0,6.4-0.5,9.5-1.8l24.7-9.8c12.8-5.1,19-19.5,14-32.3l-6.4-16c12.7-9.1,24-20,33.6-32.6l15.8,6.8c12.6,5.5,27.3-0.4,32.7-13
		l10.6-24.4c2.6-6.1,2.7-12.9,0.3-19.1c-2.4-6.1-7.1-11-13.3-13.7l-22.5-9.7c-4.6-2-9.9,0.2-11.9,4.7c-2,4.6,0.2,9.9,4.7,11.9
		l22.5,9.7c1.7,0.7,3,2,3.6,3.8c0.7,1.7,0.6,3.5-0.1,5.2L383.1,420.9z"/>
	<path class="st0" d="M226,276.5c5,0.1,9.1-4,9.1-9c0.1-5-4-9.1-9-9.1c0,0,0,0-0.1,0c-21.4-0.1-41.5,8-56.7,23
		c-15.2,15-23.7,35-23.8,56.3c-0.1,21.4,8,41.5,23,56.7c14.9,15.1,34.7,23.5,55.7,23.8c0.2,0,0.4,0,0.6,0c21.4,0.1,41.5-8,56.7-23
		c15.2-15,23.7-35,23.8-56.3c0.1-5-4-9.1-9-9.1c0,0,0,0-0.1,0c-5-0.1-9.1,4-9.1,9c-0.1,16.5-6.7,32-18.5,43.6
		c-11.8,11.6-27.4,17.9-43.9,17.7c-0.2,0-0.3,0-0.5,0c-16.3-0.2-31.7-6.8-43.1-18.4c-11.6-11.8-17.9-27.4-17.7-43.9
		c0.1-16.5,6.7-32,18.5-43.6C193.9,282.7,209.5,276.4,226,276.5z"/>
</g>
<g>
	<path class="st1" d="M474.1,274.6c9.7,5.8,22.4,2.8,28.3-7l10-16.5c5.8-9.7,2.8-22.4-7-28.3l-9-5.4c2.9-10,4.5-20.2,4.6-30.5
		l10.3-2.5c11-2.7,17.8-13.9,15.1-24.9l-4.6-18.8c-1.3-5.4-4.7-9.8-9.3-12.6c-4.7-2.8-10.2-3.7-15.5-2.4l-10.3,2.5
		c-5-9.1-11.1-17.4-18.3-24.8l5.5-9.1c5.8-9.7,2.8-22.4-7-28.3l-16.6-10c-9.7-5.8-22.4-2.8-28.3,7l-5.5,9.1
		c-10-2.9-20.2-4.5-30.5-4.6l-2.5-10.3c-1.3-5.4-4.7-9.8-9.3-12.6c-4.7-2.8-10.2-3.7-15.5-2.4l-18.8,4.6
		c-11,2.7-17.8,13.9-15.1,24.9l2.5,10.3c-9.1,5-17.4,11.1-24.8,18.3l-9.1-5.5c-9.7-5.8-22.4-2.8-28.3,7l-10,16.6
		c-5.8,9.7-2.8,22.4,7,28.3l9.1,5.5c-2.9,10-4.5,20.2-4.6,30.5l-10.3,2.5c-11,2.7-17.8,13.9-15.1,24.9l4.6,18.8
		c1.3,5.4,4.7,9.8,9.3,12.6c4.7,2.8,10.2,3.7,15.5,2.4l10.3-2.5c5,9.1,11.1,17.4,18.3,24.8l-5.5,9.1c-5.8,9.7-2.8,22.4,7,28.3
		l16.6,10c9.7,5.8,22.4,2.8,28.3-7l5.5-9.2c10,2.9,20.2,4.5,30.5,4.6l2.5,10.3c1.3,5.4,4.7,9.8,9.3,12.6c4.7,2.8,10.2,3.7,15.5,2.4
		l18.8-4.6c11-2.7,17.8-13.9,15.1-24.9l-2.5-10.3c9.1-5,17.4-11.1,24.8-18.3L474.1,274.6L474.1,274.6z M456.9,251.6
		c-8.8,9.7-19.2,17.3-31.1,22.9c-3.9,1.8-6,6.2-5,10.3l4.3,17.3c0.3,1.4-0.4,2.7-1.8,3l-18.8,4.6c-0.8,0.2-1.5-0.1-1.8-0.3
		c-0.4-0.3-0.9-0.7-1.1-1.5l-4.3-17.3c-1-4.3-4.9-7.1-9.2-6.8c-13.1,0.6-25.9-1.4-38.2-5.8c-4-1.5-8.6,0.2-10.9,3.8l-9.2,15.2
		c-0.7,1.1-2.2,1.5-3.3,0.8l-16.6-10c-1.1-0.7-1.5-2.2-0.8-3.3l9.2-15.2c2.2-3.7,1.5-8.4-1.6-11.4c-9.7-8.8-17.3-19.2-22.9-31.1
		c-0.8-1.6-2-3-3.5-3.9c-2-1.2-4.5-1.7-6.9-1l-17.3,4.3c-0.8,0.2-1.5-0.1-1.8-0.3c-0.4-0.3-0.9-0.7-1.1-1.5l-4.6-18.8
		c-0.3-1.4,0.4-2.7,1.8-3l17.3-4.3c4.3-1,7.1-4.9,6.8-9.2c-0.6-13.1,1.4-25.9,5.8-38.2c1.5-4-0.2-8.6-3.8-10.9l-15.2-9.2
		c-1.1-0.7-1.5-2.2-0.8-3.3l10.1-16.7c0.7-1.1,2.2-1.5,3.3-0.8l15.2,9.2c3.7,2.2,8.4,1.5,11.4-1.6c8.8-9.7,19.2-17.3,31.1-22.9
		c3.9-1.8,6-6.2,5-10.3l-4.3-17.3c-0.2-0.8,0.1-1.5,0.3-1.8c0.3-0.4,0.7-0.9,1.5-1.1l18.8-4.8c0.8-0.2,1.5,0.1,1.8,0.3
		c0.4,0.3,0.9,0.7,1.1,1.5l4.3,17.3c1,4.3,4.9,7.1,9.2,6.8c13.1-0.6,25.9,1.4,38.2,5.8c4,1.5,8.6-0.2,10.9-3.8l9.2-15.1
		c0.7-1.1,2.2-1.5,3.3-0.8l16.6,10c1.1,0.7,1.5,2.2,0.8,3.3l-9.2,15.2c-2.2,3.7-1.5,8.4,1.6,11.4c9.7,8.8,17.3,19.2,22.9,31.1
		c1.8,3.9,6.2,6,10.3,5l17.3-4.3c0.8-0.2,1.5,0.1,1.8,0.3c0.4,0.3,0.9,0.7,1.1,1.5l4.6,18.8c0.3,1.4-0.4,2.7-1.8,3l-17.3,4.3
		c-4.3,1-7.1,4.9-6.8,9.2c0.6,13.1-1.4,25.9-5.8,38.2c-1.5,4,0.2,8.6,3.8,10.9l15.2,9.2c1.1,0.7,1.5,2.2,0.8,3.3l-10,16.6
		c-0.7,1.1-2.2,1.5-3.3,0.8l-15.2-9.2C464.6,247.7,459.8,248.3,456.9,251.6z"/>
	<path class="st1" d="M413.8,134.9c-27.5-16.6-63.2-7.7-79.8,19.7c-16.6,27.5-7.7,63.2,19.7,79.8c27.5,16.6,63.2,7.7,79.8-19.7
		S441.2,151.4,413.8,134.9z M363.1,218.8c-18.9-11.4-25-36-13.5-54.9c11.4-18.9,36-25,54.9-13.5c18.9,11.4,25,36,13.5,54.9
		S381.9,230.2,363.1,218.8z"/>
</g>
<image style="overflow:visible;" width="705" height="382" xlink:href="6998F1F2.jpg"  transform="matrix(1 0 0 1 630 88)">
</image>
<g>
	<g>
		<path class="st0" d="M1073,233.4c-0.2,0.4-0.6,0.6-1,0.4l-2.5-1.1c-0.4-0.2-1,0-1.2,0.3c-1.2,1.7-2.6,3.1-4.3,4.2
			c-0.4,0.3-0.6,0.8-0.4,1.2l1,2.5c0.1,0.4,0,0.8-0.4,1l-2.7,1.1c-0.4,0.1-0.8,0-1-0.4l-1-2.5c-0.2-0.4-0.6-0.7-1.1-0.6
			c-2,0.4-4,0.3-6-0.1c-0.5-0.1-0.9,0.1-1.1,0.6l-1.1,2.5c-0.2,0.4-0.6,0.6-1,0.4l-2.7-1.2c-0.2-0.1-0.3-0.2-0.4-0.4s-0.1-0.4,0-0.6
			l1.1-2.5c0.2-0.4,0-1-0.3-1.2c-1.7-1.2-3.1-2.6-4.2-4.3c-0.3-0.4-0.8-0.6-1.2-0.4l-2.5,1c-0.4,0.1-0.8,0-1-0.4l-1.1-2.7
			c-0.1-0.4,0-0.8,0.4-1l2.5-1c0.4-0.2,0.7-0.6,0.6-1.1c-0.4-2-0.3-4,0.1-6c0.1-0.5-0.1-0.9-0.6-1.1l-2.5-1.1
			c-0.2-0.1-0.3-0.2-0.4-0.4c-0.1-0.2-0.1-0.4,0-0.6l1.2-2.7c0.1-0.2,0.2-0.3,0.4-0.4c0.2-0.1,0.4-0.1,0.6,0l2.5,1.1
			c0.4,0.2,1,0,1.2-0.3c1.2-1.7,2.6-3.1,4.3-4.2c0.4-0.3,0.6-0.8,0.4-1.2l-1-2.5c-0.1-0.2-0.1-0.4,0-0.6c0.1-0.2,0.2-0.3,0.4-0.4
			l2.7-1.1c0.4-0.1,0.8,0,1,0.4l1,2.5c0.2,0.5,0.8,0.8,1.3,0.6c0.5-0.2,0.8-0.8,0.6-1.3l-1-2.5c-0.6-1.4-2.2-2.1-3.6-1.6l-2.7,1.1
			c-0.7,0.3-1.2,0.8-1.5,1.5c-0.3,0.7-0.3,1.4,0,2.1l0.7,1.8c-1.4,1-2.7,2.2-3.7,3.6l-1.8-0.8c-0.7-0.3-1.4-0.3-2.1,0
			c-0.7,0.3-1.2,0.8-1.5,1.5l-1.2,2.7c-0.3,0.7-0.3,1.4,0,2.1c0.3,0.7,0.8,1.2,1.5,1.5l1.8,0.8c-0.3,1.7-0.3,3.5-0.1,5.2l-1.8,0.7
			c-1.4,0.6-2.1,2.2-1.6,3.6l1.1,2.7c0.6,1.4,2.2,2.1,3.6,1.6l1.8-0.7c1,1.4,2.2,2.7,3.6,3.7l-0.8,1.8c-0.3,0.7-0.3,1.4,0,2.1
			c0.3,0.7,0.8,1.2,1.5,1.5l2.7,1.2c1.4,0.6,3,0,3.6-1.4l0.8-1.8c1.7,0.3,3.5,0.3,5.2,0.1l0.7,1.8c0.4,1.1,1.5,1.7,2.5,1.7
			c0.4,0,0.7-0.1,1.1-0.2l2.7-1.1c1.4-0.6,2.1-2.2,1.6-3.6l-0.7-1.8c1.4-1,2.7-2.2,3.7-3.6l1.8,0.8c1.4,0.6,3,0,3.6-1.4l1.2-2.7
			c0.3-0.7,0.3-1.4,0-2.1c-0.3-0.7-0.8-1.2-1.5-1.5l-2.5-1.1c-0.5-0.2-1.1,0-1.3,0.5c-0.2,0.5,0,1.1,0.5,1.3l2.5,1.1
			c0.2,0.1,0.3,0.2,0.4,0.4s0.1,0.4,0,0.6L1073,233.4z"/>
		<path class="st0" d="M1055.6,217.4c0.6,0,1-0.4,1-1s-0.4-1-1-1c0,0,0,0,0,0c-2.4,0-4.6,0.9-6.3,2.5s-2.6,3.9-2.6,6.3
			c0,2.4,0.9,4.6,2.5,6.3c1.7,1.7,3.8,2.6,6.2,2.6c0,0,0,0,0.1,0c2.4,0,4.6-0.9,6.3-2.5s2.6-3.9,2.6-6.3c0-0.6-0.4-1-1-1
			c0,0,0,0,0,0c-0.6,0-1,0.4-1,1c0,1.8-0.7,3.6-2,4.8s-3,2-4.9,2c0,0,0,0-0.1,0c-1.8,0-3.5-0.8-4.8-2c-1.3-1.3-2-3-2-4.9
			c0-1.8,0.7-3.6,2-4.8C1052,218.1,1053.7,217.4,1055.6,217.4z"/>
	</g>
	<path class="st1" d="M1074.5,221.2c0.4,1.2,1.7,1.8,2.9,1.4l2-0.7c1.2-0.4,1.8-1.7,1.4-2.9l-0.4-1.1c0.9-0.7,1.8-1.4,2.5-2.3
		l1.1,0.5c1.1,0.5,2.5,0,3-1.1l0.9-1.9c0.3-0.6,0.3-1.2,0.1-1.7c-0.2-0.6-0.6-1-1.2-1.3l-1.1-0.5c0.2-1.1,0.3-2.3,0.2-3.4l1.1-0.4
		c1.2-0.4,1.8-1.7,1.4-2.9l-0.7-2c-0.4-1.2-1.7-1.8-2.9-1.4l-1.1,0.4c-0.7-0.9-1.4-1.8-2.3-2.5l0.5-1.1c0.3-0.6,0.3-1.2,0.1-1.7
		c-0.2-0.6-0.6-1-1.2-1.3l-1.9-0.9c-1.1-0.5-2.5,0-3,1.1l-0.5,1.1c-1.1-0.2-2.3-0.3-3.4-0.2l-0.4-1.1c-0.4-1.2-1.7-1.8-2.9-1.4
		l-2,0.7c-1.2,0.4-1.8,1.7-1.4,2.9l0.4,1.1c-0.9,0.7-1.8,1.4-2.5,2.3l-1.1-0.5c-1.1-0.5-2.5,0-3,1.1l-0.9,1.9
		c-0.3,0.6-0.3,1.2-0.1,1.7c0.2,0.6,0.6,1,1.2,1.3l1.1,0.5c-0.2,1.1-0.3,2.3-0.2,3.4l-1.1,0.4c-1.2,0.4-1.8,1.7-1.4,2.9l0.7,2
		c0.4,1.2,1.7,1.8,2.9,1.4l1.1-0.4c0.7,0.9,1.4,1.8,2.3,2.5l-0.5,1.1c-0.3,0.6-0.3,1.2-0.1,1.7c0.2,0.6,0.6,1,1.2,1.3l1.9,0.9
		c1.1,0.5,2.5,0,3-1.1l0.5-1.1c1.1,0.2,2.3,0.3,3.4,0.2L1074.5,221.2L1074.5,221.2z M1074.7,218.1c-1.4,0.2-2.9,0.1-4.3-0.2
		c-0.5-0.1-0.9,0.1-1.2,0.5l-0.8,1.8c-0.1,0.1-0.2,0.2-0.4,0.1l-1.9-0.9c-0.1,0-0.1-0.1-0.1-0.2c0-0.1,0-0.1,0-0.2l0.8-1.8
		c0.2-0.4,0.1-1-0.3-1.2c-1.2-0.9-2.1-1.9-2.9-3.2c-0.2-0.4-0.8-0.6-1.2-0.4l-1.9,0.7c-0.1,0-0.3,0-0.3-0.2l-0.7-2
		c0-0.1,0-0.3,0.2-0.3l1.9-0.7c0.4-0.2,0.7-0.6,0.7-1.1c-0.2-1.4-0.1-2.9,0.2-4.3c0-0.2,0-0.4,0-0.6c-0.1-0.2-0.3-0.5-0.5-0.6
		l-1.8-0.8c-0.1,0-0.1-0.1-0.1-0.2c0-0.1,0-0.1,0-0.2l0.9-1.9c0.1-0.1,0.2-0.2,0.4-0.1l1.8,0.8c0.4,0.2,1,0.1,1.2-0.3
		c0.9-1.2,1.9-2.1,3.2-2.9c0.4-0.2,0.6-0.8,0.4-1.2l-0.7-1.9c0-0.1,0-0.3,0.2-0.3l2-0.7c0.1,0,0.3,0,0.3,0.2l0.7,1.9
		c0.2,0.4,0.6,0.7,1.1,0.7c1.4-0.2,2.9-0.1,4.3,0.2c0.5,0.1,0.9-0.1,1.2-0.5l0.8-1.8c0-0.1,0.1-0.1,0.2-0.1c0.1,0,0.1,0,0.2,0l2,0.9
		c0.1,0,0.1,0.1,0.1,0.2c0,0.1,0,0.1,0,0.2l-0.8,1.8c-0.2,0.4-0.1,1,0.3,1.2c1.2,0.9,2.1,1.9,2.9,3.2c0.2,0.4,0.8,0.6,1.2,0.4
		l1.8-0.7c0.1,0,0.3,0,0.3,0.2l0.7,2c0,0.1,0,0.3-0.2,0.3l-1.9,0.7c-0.4,0.2-0.7,0.6-0.7,1.1c0.2,1.4,0.1,2.9-0.2,4.3
		c-0.1,0.5,0.1,0.9,0.5,1.1l1.8,0.8c0.1,0,0.1,0.1,0.1,0.2c0,0.1,0,0.1,0,0.2l-0.9,1.9c-0.1,0.1-0.2,0.2-0.4,0.1l-1.8-0.8
		c-0.4-0.2-1-0.1-1.2,0.3c-0.9,1.2-1.9,2.1-3.2,2.9c-0.4,0.2-0.6,0.8-0.4,1.2l0.7,1.9c0,0.1,0,0.3-0.2,0.3l-2,0.7
		c-0.1,0-0.3,0-0.3-0.2l-0.7-1.9C1075.6,218.3,1075.2,218,1074.7,218.1z"/>
	<path class="st1" d="M1076.4,201.7c-3-1.8-7-0.9-8.9,2.2c-1.8,3-0.9,7,2.2,8.9c3,1.8,7,0.9,8.9-2.2
		C1080.4,207.5,1079.4,203.5,1076.4,201.7z M1070.8,211c-2.1-1.3-2.8-4-1.5-6.1c1.3-2.1,4-2.8,6.1-1.5c2.1,1.3,2.8,4,1.5,6.1
		C1075.6,211.6,1072.9,212.2,1070.8,211z"/>
</g>
</svg>
