<?xml version="1.0" encoding="UTF-8"?>
<!DOCTYPE svg PUBLIC "-//W3C//DTD SVG 1.1//EN" "http://www.w3.org/Graphics/SVG/1.1/DTD/svg11.dtd">
<!-- Creator: CorelDRAW X8 -->
<svg xmlns="http://www.w3.org/2000/svg" xml:space="preserve" width="42.3332mm" height="42.3332mm" version="1.1" style="shape-rendering:geometricPrecision; text-rendering:geometricPrecision; image-rendering:optimizeQuality; fill-rule:evenodd; clip-rule:evenodd"
viewBox="0 0 4233 4233"
 xmlns:xlink="http://www.w3.org/1999/xlink">
 <defs>
  <style type="text/css">
   <![CDATA[
    .fil1 {fill:#03AFF5}
    .fil0 {fill:#979797}
   ]]>
  </style>
 </defs>
 <g id="Capa_x0020_1">
  <metadata id="CorelCorpID_0Corel-Layer"/>
  <g id="_1830784042816">
   <path class="fil0" d="M593 3959c9,4 20,6 31,6 20,0 40,-8 54,-22l543 -519 1020 0c212,0 384,-172 384,-384l0 -579c0,-43 -36,-79 -79,-79 -43,0 -79,36 -79,79l0 579c0,125 -102,226 -226,226l-1052 0c-20,0 -40,8 -55,22l-432 414 0 -356c0,-43 -36,-79 -79,-79l-239 0c-125,0 -227,-102 -227,-226l0 -1134c0,-125 103,-227 227,-227l928 0c44,0 79,-36 79,-79 0,-43 -35,-79 -79,-79l-928 0c-212,0 -384,172 -384,384l0 1134c0,212 172,384 384,384l161 0 0 463c0,32 19,60 48,72z"/>
   <path class="fil1" d="M3004 2184l547 524c14,13 34,21 54,21 11,0 21,-2 31,-6 29,-12 48,-41 48,-72l0 -467 163 0c212,0 386,-173 386,-387l0 -1142c0,-212 -173,-386 -386,-386l-1872 0c-213,0 -387,173 -387,386l0 1142c0,213 173,387 387,387l1029 0 0 0zm-1258 -386l0 -1142c0,-126 103,-229 229,-229l1871 0c126,0 229,103 229,229l0 1142c0,127 -103,230 -229,230l-242 0c-43,0 -78,35 -78,78l0 362 -437 -419c-15,-14 -34,-21 -55,-21l-1059 0c-126,0 -229,-103 -229,-230z"/>
   <path class="fil1" d="M2910 1321c21,0 41,-9 56,-24 15,-14 23,-34 23,-55 0,-21 -8,-41 -23,-55 -15,-15 -35,-24 -56,-24 -20,0 -40,9 -55,24 -15,14 -23,34 -23,55 0,21 8,41 23,55 15,17 35,24 55,24z"/>
   <path class="fil1" d="M3203 1321c21,0 41,-9 55,-24 15,-14 24,-34 24,-55 0,-21 -9,-41 -24,-55 -14,-15 -34,-24 -55,-24 -21,0 -41,9 -55,24 -15,14 -24,34 -24,55 0,21 9,41 24,55 13,17 34,24 55,24z"/>
   <path class="fil1" d="M2619 1321c21,0 41,-9 55,-24 15,-14 24,-34 24,-55 0,-21 -9,-41 -24,-55 -14,-15 -34,-24 -55,-24 -21,0 -41,9 -55,24 -15,14 -24,34 -24,55 0,21 9,41 24,55 14,17 34,24 55,24z"/>
  </g>
 </g>
</svg>
