<?xml version="1.0" encoding="utf-8"?>
<!-- Generator: Adobe Illustrator 21.0.0, SVG Export Plug-In . SVG Version: 6.00 Build 0)  -->
<svg version="1.1" id="Layer_1" xmlns="http://www.w3.org/2000/svg" xmlns:xlink="http://www.w3.org/1999/xlink" x="0px" y="0px"
	 viewBox="0 0 536.7 536.7" style="enable-background:new 0 0 536.7 536.7;" xml:space="preserve">
<style type="text/css">
	.st0{fill:#666666;}
	.st1{fill:#03AFF5;}
</style>
<g>
	<g>
		<path class="st0" d="M92.2,481.2c1.1,0.5,2.4,0.7,3.6,0.7c2.3,0,4.6-0.9,6.3-2.5l62.7-60h117.9c24.5,0,44.4-19.9,44.4-44.4v-66.9
			c0-5-4.1-9.1-9.1-9.1s-9.1,4.1-9.1,9.1V375c0,14.5-11.8,26.2-26.2,26.2H161.1c-2.3,0-4.6,0.9-6.3,2.5l-50,47.8v-41.1
			c0-5-4.1-9.1-9.1-9.1H68.1c-14.5,0-26.2-11.8-26.2-26.2v-131c0-14.5,11.8-26.3,26.2-26.3h107.3c5,0,9.1-4.1,9.1-9.1
			s-4.1-9.1-9.1-9.1H68.1c-24.5,0-44.4,19.9-44.4,44.4v131c0,24.5,19.9,44.4,44.4,44.4h18.6v53.5C86.7,476.6,88.9,479.8,92.2,481.2z
			"/>
		<path class="st1" d="M370.9,276.1l63.2,60.5c1.7,1.6,4,2.5,6.3,2.5c1.2,0,2.4-0.2,3.6-0.7c3.3-1.4,5.5-4.7,5.5-8.3v-54h18.8
			c24.6,0,44.7-20,44.7-44.7v-132c0-24.6-20-44.7-44.7-44.7H252c-24.6,0-44.7,20-44.7,44.7v132c0,24.6,20,44.7,44.7,44.7H370.9
			L370.9,276.1z M225.5,231.5v-132c0-14.6,11.9-26.5,26.5-26.5h216.2c14.6,0,26.5,11.9,26.5,26.5v132c0,14.6-11.9,26.5-26.5,26.5
			h-27.9c-5,0-9.1,4.1-9.1,9.1v41.8l-50.5-48.4c-1.7-1.6-3.9-2.5-6.3-2.5H252C237.4,258.1,225.5,246.1,225.5,231.5z"/>
		<path class="st1" d="M360.1,176.3c2.4,0,4.7-1,6.4-2.7c1.7-1.7,2.7-4,2.7-6.4s-1-4.7-2.7-6.4s-4-2.7-6.4-2.7s-4.7,1-6.4,2.7
			c-1.7,1.7-2.7,4-2.7,6.4s1,4.7,2.7,6.4C355.4,175.5,357.7,176.3,360.1,176.3z"/>
		<path class="st1" d="M393.9,176.3c2.4,0,4.7-1,6.4-2.7c1.7-1.7,2.7-4,2.7-6.4s-1-4.7-2.7-6.4s-4-2.7-6.4-2.7s-4.7,1-6.4,2.7
			c-1.7,1.7-2.7,4-2.7,6.4s1,4.7,2.7,6.4C389.1,175.5,391.5,176.3,393.9,176.3z"/>
		<path class="st1" d="M326.4,176.3c2.4,0,4.7-1,6.4-2.7c1.7-1.7,2.7-4,2.7-6.4s-1-4.7-2.7-6.4s-4-2.7-6.4-2.7s-4.7,1-6.4,2.7
			c-1.7,1.7-2.7,4-2.7,6.4s1,4.7,2.7,6.4C321.7,175.5,324,176.3,326.4,176.3z"/>
	</g>
</g>
</svg>
